<svg width="261" height="275" viewBox="0 0 261 275" fill="none" xmlns="http://www.w3.org/2000/svg">
<path d="M97.3741 265.303C65.3096 261.215 40.6815 288.955 14.1312 261.782C-12.4197 234.609 0.482056 83.788 42.3816 52.9968C84.2812 22.2055 126.526 25.7792 147.581 41.9271C168.637 58.075 171.266 69.3162 198.899 76.7728C226.532 84.2294 233.217 80.7289 253.678 144.163C274.666 209.234 245.735 249.335 218.547 260.392C156.019 285.821 139.109 270.623 97.3741 265.303Z" fill="#424654"/>
<path d="M206.026 66.4459C208.314 68.8386 211.196 70.6171 214.267 71.8512C216.538 72.7637 218.973 73.3945 221.414 73.2301C223.856 73.0651 226.312 72.0234 227.806 70.0846C230.158 67.0326 229.628 62.6632 228.401 59.0096C227.192 55.4109 225.418 52.0027 223.166 48.9478C220.108 44.8016 215.882 41.1755 210.8 40.3357C205.6 39.4762 198.31 42.7753 198.192 48.6905C198.078 54.3834 202.208 62.4529 206.026 66.4459Z" fill="#EF5A6F"/>
<path d="M174.196 32.1405C171.519 32.5896 169.162 33.4651 167.942 34.6165C166.272 36.1913 165.358 38.7132 166.16 40.8633C166.964 43.0153 169.209 44.2876 171.422 44.9035C175.252 45.9696 179.471 45.5682 183.032 43.7998C184.847 42.8974 186.567 41.5567 187.304 39.6656C190.331 31.904 178.95 31.3429 174.196 32.1405Z" fill="#EF5A6F"/>
<path d="M119.143 148.054H70.698C55.8621 148.054 43.8357 160.084 43.8357 174.923V215.835C43.8357 230.674 55.8627 242.704 70.698 242.704H119.143C133.978 242.704 146.005 230.674 146.005 215.835V174.923C146.006 160.084 133.978 148.054 119.143 148.054Z" fill="#FFCE5E"/>
<path d="M0.702881 212.373C1.98496 235.345 6.37309 253.843 14.1305 261.782C40.6814 288.955 65.3095 261.216 97.3734 265.303C139.108 270.623 156.019 285.821 218.546 260.392C234.37 253.957 250.779 237.68 257.599 212.373H0.702881Z" fill="#D5F2F9"/>
<path d="M63.2593 231.651C81.9545 238.143 103.365 236.336 120.709 226.803L113.84 212.372H39.0206C43.5427 221.63 53.2766 228.184 63.2593 231.651Z" fill="#495E84"/>
<path d="M181.183 244.656L144.482 258.033L103.93 227.106L143.979 220.676L181.183 244.656Z" fill="#495E84"/>
<path d="M182.246 243.639L145.545 257.017L104.992 226.089L145.041 219.66L182.246 243.639Z" fill="#9DC9DD"/>
<path d="M182.26 242.413L145.56 255.79L105.007 224.862L145.057 218.433L182.26 242.413Z" fill="#D5F2F9"/>
<path d="M183.831 241.949L147.13 255.326L106.578 224.398L146.627 217.969L183.831 241.949Z" fill="white"/>
<path d="M171.67 239.131L147.988 246.476" stroke="#9DC9DD" stroke-width="2" stroke-miterlimit="10" stroke-linecap="round" stroke-linejoin="round"/>
<path d="M164.786 235.369L141.104 242.714" stroke="#9DC9DD" stroke-width="2" stroke-miterlimit="10" stroke-linecap="round" stroke-linejoin="round"/>
<path d="M159.235 231.743L135.552 239.088" stroke="#9DC9DD" stroke-width="2" stroke-miterlimit="10" stroke-linecap="round" stroke-linejoin="round"/>
<path d="M153.101 228.627L129.418 235.973" stroke="#9DC9DD" stroke-width="2" stroke-miterlimit="10" stroke-linecap="round" stroke-linejoin="round"/>
<path d="M147.307 225.4L137.179 227.903" stroke="#9DC9DD" stroke-width="2" stroke-miterlimit="10" stroke-linecap="round" stroke-linejoin="round"/>
<path d="M51.2423 204.025C52.1248 198.167 52.8465 194.556 52.8465 194.556L71.3781 197.204C71.3781 197.204 75.7102 199.732 74.9879 199.972C74.8676 202.621 74.025 209.601 74.025 209.601L51.2423 204.025Z" fill="#EBBA9D"/>
<path d="M71.3786 197.204L52.8471 194.556C52.8471 194.556 52.2885 197.351 51.5537 202.008C58.8049 204.525 66.4665 205.856 74.1417 205.923C74.2429 205.924 74.3447 205.924 74.4471 205.924C74.677 203.816 74.9277 201.328 74.989 199.972C75.7108 199.731 71.3786 197.204 71.3786 197.204Z" fill="#EB977D"/>
<path d="M143.821 212.37H163.917L160.307 198.889L142.016 201.657L143.821 212.37Z" fill="#EBBA9D"/>
<path d="M143.227 208.844C149.342 206.961 155.329 204.663 161.13 201.964L160.307 198.889L142.016 201.657L143.227 208.844Z" fill="#EB977D"/>
<path d="M103.182 74.1461C77.1638 73.1371 70.4163 90.4995 69.3147 102.427C68.213 114.356 56.4284 129.694 64.5401 138.987C72.6524 148.28 90.012 149.951 100.917 149.043C111.823 148.136 128.801 143.142 133.994 137.025C139.187 130.909 130.966 120.281 130.472 108.291C129.978 96.3014 124.73 74.9817 103.182 74.1461Z" fill="#222859"/>
<path d="M80.8849 146.771C65.843 152.669 61.992 156.521 57.1787 162.78C52.3654 169.039 50.1257 201.327 50.1257 201.327C50.1257 201.327 69.934 203.704 74.2661 203.945L73.6647 212.37H143.821L143.58 204.667L163.074 200.816C163.074 200.816 152.004 167.596 148.634 159.892C145.265 152.189 126.251 146.652 119.874 144.125L100.259 146.412L80.8849 146.771Z" fill="#ED6C6B"/>
<path d="M90.2709 132.689C90.2709 132.689 90.6318 134.735 89.6695 139.068C88.7066 143.401 80.8849 146.771 80.8849 146.771C80.8849 146.771 95.9268 157.844 104.711 161.455C104.711 161.455 117.106 150.863 119.874 144.123C119.874 144.123 115.301 142.317 112.894 140.512C110.487 138.707 110.608 132.328 110.608 132.328L90.2709 132.689Z" fill="#EBBA9D"/>
<path d="M136.725 223.203L137.263 227.776L133.507 225.062L115.12 193.269C114.606 192.381 114.91 191.243 115.799 190.729C116.687 190.217 117.823 190.52 118.336 191.409L136.725 223.203Z" fill="#222859"/>
<path d="M106.116 209.32C109.806 209.16 113.175 205.95 115.903 205.468C118.631 204.987 123.604 207.073 126.974 207.394C130.343 207.715 132.998 208.198 132.108 211.566C132.108 211.566 133.552 213.813 131.306 216.06C131.306 216.06 132.75 217.023 129.381 218.948C129.381 218.948 130.183 220.393 127.295 221.516C124.407 222.639 109.806 223.442 105.474 224.244C101.142 225.046 82.3695 229.38 69.373 225.849C56.3765 222.318 49.1569 216.54 51.2422 204.023C51.2422 204.024 102.425 209.481 106.116 209.32Z" fill="#EBBA9D"/>
<path d="M110.857 135.794L108.167 132.371L90.2716 132.689C90.2716 132.689 90.6325 134.735 89.6702 139.068C89.4498 140.059 88.868 141 88.1052 141.862C88.5822 142.127 89.0693 142.375 89.5648 142.6C96.95 145.96 106.084 145.023 112.693 140.343C111.637 139.383 111.115 137.496 110.857 135.794Z" fill="#EB977D"/>
<path d="M122.568 108.423C124.298 118.711 121.319 141.235 102.935 141.163C83.0953 141.086 80.7521 119.818 80.7521 119.818C80.7521 119.818 75.441 119.602 75.4886 114.675C75.5362 109.747 80.8599 109.831 80.8599 109.831C80.8599 109.831 100.975 105.528 105.528 93.5449C105.528 93.5449 114.973 106.933 122.568 108.423Z" fill="#EBBA9D"/>
<path d="M80.243 114.021C80.0185 113.753 79.7433 113.526 79.4599 113.323C79.3307 113.23 79.1848 113.159 79.043 113.088C78.8733 113.004 78.6953 112.902 78.5059 112.875C78.3166 112.848 78.1397 112.878 78.017 113.042C77.9128 113.182 77.8735 113.405 77.9807 113.559C78.1504 113.802 78.3975 113.978 78.6119 114.181C78.7983 114.357 78.9871 114.527 79.1532 114.722C78.943 114.834 78.756 115.015 78.6345 115.184C78.4321 115.467 78.3106 115.86 78.3416 116.21C78.4106 116.993 79.1395 117.763 79.9809 117.517C80.7062 117.305 81.0135 116.513 80.9808 115.813C80.9486 115.143 80.6693 114.531 80.243 114.021Z" fill="#EB977D"/>
<path d="M105.9 99.4529C105.9 99.4529 114.663 108.555 122.568 108.424C114.973 106.933 105.528 93.5449 105.528 93.5449C100.975 105.528 80.8599 109.831 80.8599 109.831C92.1878 109.849 102.347 105.62 105.9 99.4529Z" fill="#EB977D"/>
<path d="M80.5628 206.69C79.0699 206.243 77.4662 206.162 75.9221 205.983C74.3173 205.796 72.7131 205.609 71.11 205.405C69.5528 205.207 67.9968 205.003 66.4402 204.802C65.6405 204.699 64.8419 204.586 64.0422 204.485C63.2157 204.38 62.3463 204.21 61.5138 204.278C61.2434 204.3 61.2142 204.631 61.4524 204.731C62.1879 205.041 63.0168 205.143 63.7986 205.285C64.5918 205.43 65.3898 205.554 66.1854 205.684C67.7795 205.943 69.376 206.177 70.976 206.394C72.4898 206.601 74.0047 206.797 75.5208 206.984C77.1476 207.184 78.8352 207.481 80.474 207.345C80.8391 207.315 80.9391 206.803 80.5628 206.69Z" fill="#EB977D"/>
<path d="M132.424 211.595C132.539 211.551 132.637 211.461 132.675 211.304C132.823 210.694 132.885 210.028 132.665 209.427C132.477 208.91 132.115 208.505 131.671 208.189C131.224 207.871 130.71 207.664 130.177 207.541C129.878 207.471 129.573 207.427 129.268 207.392C128.985 207.359 128.665 207.352 128.398 207.459C128.331 207.485 128.318 207.565 128.378 207.607C128.804 207.901 129.404 207.908 129.89 208.047C130.329 208.174 130.777 208.359 131.13 208.655C131.435 208.911 131.673 209.23 131.814 209.602C131.961 209.986 131.939 210.392 131.857 210.787C131.851 210.784 131.847 210.779 131.841 210.777C131.468 210.63 131.013 210.713 130.618 210.72C130.244 210.726 129.869 210.729 129.494 210.728C128.652 210.723 127.809 210.7 126.968 210.659C126.158 210.619 125.35 210.553 124.541 210.502C123.804 210.456 122.905 210.246 122.192 210.488C122.1 210.519 122.092 210.629 122.166 210.684C122.795 211.143 123.779 211.18 124.528 211.292C125.337 211.414 126.151 211.482 126.967 211.537C127.809 211.592 128.651 211.622 129.494 211.628C129.931 211.631 130.368 211.629 130.805 211.62C131.019 211.616 131.227 211.619 131.43 211.598C131.449 211.646 131.477 211.69 131.525 211.729C132.148 212.231 132.196 213.214 132.099 213.949C132.046 214.354 131.913 214.768 131.638 215.08C131.586 215.139 131.531 215.19 131.476 215.241C131.16 215.065 130.789 215.132 130.431 215.139C129.983 215.15 129.536 215.157 129.088 215.158C128.192 215.16 127.296 215.147 126.401 215.132C125.506 215.116 124.612 215.081 123.718 215.065C123.272 215.057 122.824 215.049 122.379 215.053C122.101 215.055 121.794 215.017 121.606 215.25C121.602 215.254 121.601 215.26 121.604 215.265C121.746 215.553 122.109 215.572 122.397 215.628C122.833 215.713 123.276 215.783 123.718 215.839C124.609 215.952 125.503 216.014 126.401 216.052C127.297 216.089 128.191 216.091 129.088 216.066C129.536 216.053 129.983 216.037 130.431 216.014C130.604 216.005 130.774 216.006 130.936 215.992C130.949 216.221 130.974 216.446 130.906 216.684C130.803 217.048 130.576 217.372 130.258 217.58C129.547 218.045 128.491 218.047 127.675 218.157C126.72 218.287 125.77 218.441 124.816 218.577C124.311 218.649 123.803 218.712 123.298 218.787C122.851 218.853 122.346 218.881 121.951 219.112C121.811 219.194 121.852 219.39 121.994 219.44C122.503 219.62 123.133 219.51 123.663 219.47C124.263 219.424 124.863 219.371 125.462 219.315C126.645 219.206 127.821 219.068 128.996 218.897C129.007 218.895 129.018 218.894 129.029 218.892C128.971 219.201 128.93 219.496 128.773 219.785C128.602 220.1 128.359 220.365 128.075 220.583C127.537 220.995 126.88 221.228 126.231 221.398C125.534 221.582 124.82 221.695 124.109 221.804C123.653 221.873 123.198 221.943 122.743 222.012C122.336 222.074 121.897 222.109 121.545 222.339C121.484 222.38 121.493 222.474 121.566 222.495C121.986 222.623 122.441 222.522 122.868 222.465C123.376 222.396 123.884 222.328 124.393 222.259C125.233 222.147 126.081 222.081 126.904 221.868C127.617 221.682 128.304 221.376 128.86 220.885C129.441 220.37 129.977 219.546 129.817 218.738C129.817 218.737 129.816 218.736 129.816 218.735C130.419 218.577 130.975 218.311 131.367 217.776C131.721 217.292 131.961 216.518 131.797 215.893C131.975 215.82 132.144 215.726 132.285 215.59C132.717 215.176 132.911 214.591 132.967 214.007C133.044 213.195 132.915 212.266 132.424 211.595Z" fill="#EB977D"/>
<path d="M133.507 225.062L137.263 227.776L136.725 223.203C134.136 222.679 133.507 225.062 133.507 225.062Z" fill="#EB977D"/>
<path d="M137.263 227.776L137.067 226.107C136.599 226.218 136.191 226.455 135.848 226.753L137.263 227.776Z" fill="#222859"/>
<path d="M119.856 194.035C118.986 194.244 118.153 194.634 117.475 195.16C117.178 195.391 116.906 195.647 116.656 195.925L117.433 197.268C117.693 196.958 117.997 196.671 118.295 196.461C118.79 196.11 119.324 195.83 119.907 195.662C120.185 195.581 120.448 195.541 120.712 195.516L119.856 194.035Z" fill="#FFCE5E"/>
<path d="M97.7211 109.222C96.7838 108.764 95.7215 108.62 94.7062 108.89C94.1387 109.041 93.6397 109.313 93.1859 109.682C92.9698 109.857 92.756 110.056 92.6119 110.297C92.4559 110.557 92.2772 110.932 92.3951 111.231C92.4874 111.465 92.6613 111.623 92.9215 111.632C93.196 111.641 93.3842 111.479 93.5986 111.337C93.7201 111.257 93.8338 111.167 93.9464 111.075C93.9446 111.077 93.9767 111.051 93.9964 111.036C94.0226 111.019 94.1048 110.962 94.1161 110.954C94.2905 110.841 94.4751 110.748 94.6639 110.66C94.6419 110.673 94.8527 110.588 94.8753 110.58C94.9789 110.546 95.0843 110.518 95.1903 110.494C95.2421 110.483 95.2939 110.473 95.3457 110.464C95.3559 110.462 95.3654 110.461 95.3708 110.46C95.4815 110.451 95.5923 110.445 95.7036 110.446C95.8019 110.446 95.9007 110.454 95.999 110.463C96.0097 110.468 96.1896 110.498 96.2253 110.506C96.3343 110.532 96.442 110.563 96.548 110.599C96.5891 110.613 96.6302 110.628 96.6707 110.644C96.691 110.653 96.7201 110.666 96.7297 110.67C96.9411 110.781 97.1423 110.905 97.3513 111.019C97.5991 111.154 97.8367 111.295 98.132 111.286C98.5429 111.274 98.8359 110.965 98.8335 110.554C98.8293 109.939 98.2225 109.467 97.7211 109.222Z" fill="#222859"/>
<path d="M114.894 109.222C113.956 108.764 112.894 108.62 111.879 108.89C111.311 109.041 110.812 109.313 110.359 109.682C110.142 109.857 109.929 110.056 109.784 110.297C109.628 110.557 109.45 110.932 109.568 111.231C109.66 111.465 109.834 111.623 110.094 111.632C110.369 111.641 110.557 111.479 110.771 111.337C110.893 111.257 111.006 111.167 111.119 111.075C111.117 111.077 111.149 111.051 111.169 111.036C111.195 111.019 111.277 110.962 111.289 110.954C111.464 110.841 111.648 110.748 111.837 110.66C111.815 110.673 112.026 110.588 112.049 110.58C112.152 110.546 112.258 110.518 112.364 110.494C112.415 110.483 112.467 110.473 112.519 110.464C112.529 110.462 112.539 110.461 112.544 110.46C112.655 110.451 112.765 110.445 112.877 110.446C112.975 110.446 113.074 110.454 113.172 110.463C113.183 110.468 113.363 110.498 113.398 110.506C113.507 110.532 113.615 110.563 113.721 110.599C113.762 110.613 113.803 110.628 113.844 110.644C113.864 110.653 113.893 110.666 113.903 110.67C114.114 110.781 114.316 110.905 114.525 111.019C114.772 111.154 115.01 111.295 115.305 111.286C115.716 111.274 116.009 110.965 116.007 110.554C116.002 109.939 115.395 109.467 114.894 109.222Z" fill="#222859"/>
<path d="M97.8128 117.783C97.8218 117.595 97.82 117.408 97.7974 117.215C97.7396 116.725 97.6568 116.299 97.4079 115.862C97.1376 115.387 96.6927 115 96.1598 114.854C95.1236 114.572 93.9767 115.166 93.5444 116.138C93.3717 116.526 93.2681 116.883 93.2008 117.298C93.0061 118.502 93.093 119.899 94.172 120.679C95.2576 121.463 96.9113 121.172 97.4907 119.903C97.7086 119.426 97.8021 118.974 97.8343 118.448C97.8474 118.227 97.8355 118.004 97.8128 117.783Z" fill="#222859"/>
<path d="M114.278 117.783C114.287 117.595 114.285 117.408 114.262 117.215C114.205 116.725 114.122 116.299 113.873 115.862C113.603 115.387 113.158 115 112.625 114.854C111.589 114.572 110.442 115.166 110.009 116.138C109.837 116.526 109.733 116.883 109.666 117.298C109.471 118.502 109.558 119.899 110.637 120.679C111.723 121.463 113.376 121.172 113.956 119.903C114.173 119.426 114.267 118.974 114.299 118.448C114.313 118.227 114.301 118.004 114.278 117.783Z" fill="#222859"/>
<path d="M106.805 123.034C106.538 122.767 106.149 122.778 105.811 122.872C105.584 122.936 105.371 123.11 105.159 123.218C105.073 123.262 104.748 123.512 104.662 123.482C104.665 123.483 104.879 123.4 104.709 123.462C104.669 123.476 104.629 123.492 104.589 123.505C104.51 123.533 104.429 123.557 104.348 123.579C104.256 123.604 104.164 123.621 104.071 123.641C104.068 123.642 104.061 123.643 104.055 123.644C104.024 123.648 103.968 123.655 103.953 123.657C103.741 123.674 103.533 123.668 103.322 123.655C103.288 123.653 103.273 123.652 103.264 123.652C103.18 123.641 103.098 123.63 103.013 123.624C102.976 123.621 102.817 123.602 102.795 123.603C102.406 123.529 102.052 123.35 101.652 123.379C101.519 123.389 101.411 123.483 101.409 123.622C101.402 124.05 101.672 124.339 101.989 124.592C102.328 124.861 102.689 125.092 103.113 125.2C103.922 125.405 104.828 125.392 105.618 125.109C106.17 124.912 106.77 124.543 106.97 123.963C107.076 123.649 107.048 123.277 106.805 123.034Z" fill="#EB977D"/>
<path d="M98.095 115.201C98.0385 114.999 97.9366 114.824 97.7889 114.676C97.7085 114.614 97.6282 114.552 97.5484 114.489C97.3626 114.382 97.1625 114.327 96.9475 114.327C96.7838 114.321 96.6307 114.355 96.489 114.429C96.3413 114.478 96.2139 114.559 96.1061 114.675C95.99 114.783 95.9078 114.911 95.8602 115.058C95.7857 115.2 95.7512 115.353 95.7577 115.517C95.772 115.622 95.7863 115.728 95.8 115.833C95.8566 116.035 95.9584 116.21 96.1061 116.359C96.1865 116.42 96.2669 116.482 96.3473 116.545C96.5331 116.653 96.7332 116.707 96.9481 116.708C97.1119 116.713 97.2649 116.68 97.4066 116.605C97.5543 116.557 97.6818 116.475 97.7895 116.359C97.9057 116.251 97.9878 116.123 98.0355 115.976C98.1099 115.834 98.1444 115.681 98.1379 115.517C98.123 115.412 98.1087 115.307 98.095 115.201Z" fill="white"/>
<path d="M114.769 115.201C114.713 114.999 114.611 114.824 114.463 114.676C114.383 114.614 114.302 114.552 114.222 114.489C114.036 114.382 113.836 114.327 113.621 114.327C113.457 114.321 113.304 114.355 113.163 114.429C113.015 114.478 112.887 114.559 112.78 114.675C112.664 114.783 112.581 114.911 112.534 115.058C112.459 115.2 112.425 115.353 112.431 115.517C112.446 115.622 112.46 115.728 112.474 115.833C112.53 116.035 112.632 116.21 112.78 116.359C112.86 116.42 112.94 116.482 113.02 116.545C113.206 116.653 113.406 116.707 113.621 116.708C113.785 116.713 113.938 116.68 114.08 116.605C114.227 116.557 114.355 116.475 114.463 116.359C114.579 116.251 114.661 116.123 114.708 115.976C114.783 115.834 114.817 115.681 114.811 115.517C114.797 115.412 114.783 115.307 114.769 115.201Z" fill="white"/>
<path d="M93.4752 122.842C93.4752 124.047 91.8257 125.024 89.791 125.024C87.7562 125.024 86.1067 124.047 86.1067 122.842C86.1067 121.637 87.7562 120.661 89.791 120.661C91.8257 120.66 93.4752 121.637 93.4752 122.842Z" fill="#ED6C6B"/>
<path d="M117.411 125.024C119.446 125.024 121.096 124.047 121.096 122.842C121.096 121.637 119.446 120.661 117.411 120.661C115.377 120.661 113.727 121.637 113.727 122.842C113.727 124.047 115.377 125.024 117.411 125.024Z" fill="#ED6C6B"/>
<path d="M101.397 165.435C102.372 165.854 103.354 166.256 104.338 166.653C105.218 167.008 106.181 167.64 107.035 166.927C107.937 166.173 108.729 165.239 109.545 164.395C110.385 163.527 111.223 162.656 112.046 161.772C113.692 160.003 115.317 158.213 116.932 156.416C119.913 153.099 122.86 149.722 125.65 146.232C125.214 146.075 124.791 145.923 124.378 145.776C122.099 148.486 119.829 151.202 117.482 153.858C114.425 157.318 111.261 160.681 108.049 163.997C107.688 164.369 107.325 164.737 106.965 165.11C106.769 165.313 106.568 165.599 106.339 165.765C106.041 165.982 105.867 165.894 105.54 165.774C104.558 165.414 103.587 165.029 102.62 164.63C100.66 163.822 98.7281 162.947 96.8255 162.014C93.1407 160.207 89.5618 158.167 86.1449 155.892C82.7971 153.663 79.6297 151.184 76.6219 148.518C76.3539 148.633 76.0872 148.748 75.8281 148.862C81.5418 154.513 88.3512 159.053 95.4964 162.678C97.4329 163.659 99.4022 164.576 101.397 165.435Z" fill="#222859"/>
<path d="M75.6649 175.474C75.6345 175.387 75.4999 175.374 75.4755 175.474C75.2254 176.506 75.1379 177.567 74.9318 178.61C74.8264 178.498 74.721 178.386 74.6121 178.279C74.456 178.127 74.2953 177.982 74.1226 177.848C73.9249 177.695 73.7379 177.541 73.4908 177.478C73.3216 177.435 73.1996 177.612 73.2734 177.76C73.3669 177.947 73.5116 178.089 73.6533 178.24C73.7891 178.385 73.9249 178.532 74.0583 178.679C74.1922 178.827 74.3215 178.979 74.4459 179.135C74.4608 179.154 74.4763 179.173 74.4912 179.192C74.4942 179.195 74.5114 179.218 74.5198 179.229C74.5287 179.241 74.5424 179.258 74.5448 179.261C74.5591 179.28 74.5734 179.3 74.5877 179.319C74.6335 179.381 74.6782 179.444 74.7234 179.507C74.4584 180.534 74.1595 181.549 73.8367 182.559C73.087 184.903 72.3969 187.28 72.2932 189.753C72.1867 192.314 72.6041 194.863 73.0054 197.383C73.2097 198.664 73.4086 199.945 73.5515 201.234C73.6998 202.572 73.6539 203.911 73.7736 205.242C73.8189 205.745 74.6091 205.945 74.7222 205.371C74.9664 204.124 74.8312 202.741 74.7121 201.485C74.596 200.262 74.3947 199.048 74.1934 197.838C73.7564 195.204 73.2633 192.559 73.3425 189.878C73.4181 187.318 74.2083 184.921 74.9009 182.48C75.145 181.619 75.3826 180.756 75.5625 179.88C75.6351 179.79 75.6595 179.667 75.6291 179.545C75.6286 179.543 75.6268 179.541 75.6262 179.538C75.6661 179.323 75.7078 179.108 75.7387 178.89C75.9019 177.768 76.0454 176.564 75.6649 175.474Z" fill="#222859"/>
<path d="M144.657 196.416C144.411 193.734 143.241 191.367 142.267 188.898C141.261 186.348 140.569 183.654 140.292 180.924C140.143 179.456 140.098 177.978 140.179 176.505C140.204 176.033 140.242 175.56 140.287 175.087C140.356 175.096 140.425 175.089 140.485 175.043C140.585 174.966 140.63 174.905 140.676 174.79C140.682 174.775 140.692 174.758 140.696 174.742C140.688 174.781 140.674 174.794 140.695 174.747C140.726 174.676 140.762 174.607 140.798 174.539C140.875 174.394 140.949 174.25 141.041 174.115C141.063 174.083 141.086 174.051 141.108 174.02C141.114 174.012 141.129 173.997 141.135 173.985C141.137 173.984 141.138 173.981 141.14 173.979C141.178 173.933 141.216 173.887 141.252 173.839C141.265 173.822 141.277 173.805 141.29 173.788C141.291 173.786 141.29 173.786 141.292 173.785C141.329 173.702 141.423 173.642 141.468 173.562C141.497 173.484 141.506 173.465 141.494 173.504C141.487 173.521 141.488 173.523 141.497 173.508C141.509 173.499 141.524 173.471 141.532 173.459C141.563 173.412 141.571 173.365 141.573 173.316C141.593 173.256 141.601 173.191 141.558 173.138C141.515 173.087 141.458 173.076 141.396 173.077C141.346 173.063 141.296 173.057 141.24 173.079C141.208 173.091 141.175 173.106 141.143 173.12C141.136 173.124 141.128 173.127 141.119 173.13C141.1 173.14 141.103 173.136 141.13 173.121C141.046 173.122 140.935 173.229 140.87 173.278C140.718 173.395 140.592 173.524 140.474 173.675C140.466 173.685 140.458 173.696 140.451 173.706C140.542 173.107 140.645 172.505 140.606 171.9C140.598 171.771 140.43 171.717 140.36 171.833C139.715 172.889 139.572 174.318 139.421 175.526C139.253 176.865 139.209 178.225 139.25 179.574C139.334 182.278 139.803 184.988 140.638 187.561C141.492 190.191 142.896 192.658 143.385 195.398C143.857 198.051 143.485 200.769 143.171 203.417C142.826 206.338 142.573 209.35 143.381 212.22C143.542 212.791 144.429 212.549 144.271 211.974C142.862 206.833 145.132 201.613 144.657 196.416Z" fill="#222859"/>
<path d="M161.399 195.823C158.663 196.506 155.921 197.165 153.171 197.795C151.392 198.203 149.609 198.599 147.823 198.976C146.909 199.169 145.988 199.34 145.081 199.565C144.951 199.597 143.769 199.792 144.042 200.222C144.338 200.691 145.086 200.42 145.542 200.354C146.467 200.22 147.386 200.031 148.305 199.857C150.1 199.518 151.893 199.168 153.681 198.791C156.388 198.219 159.085 197.591 161.771 196.926C161.654 196.577 161.53 196.209 161.399 195.823Z" fill="#222859"/>
<path d="M51.2691 197.299C52.307 197.489 53.3479 197.653 54.3906 197.808C56.4403 198.112 58.4917 198.361 60.5521 198.565C64.733 198.98 69.008 199.452 73.2109 199.338C73.9839 199.317 73.9636 198.148 73.2109 198.08C69.0491 197.705 64.8616 197.656 60.6956 197.292C58.64 197.112 56.5844 196.912 54.5305 196.709C53.4813 196.605 52.4332 196.493 51.384 196.393C51.1 196.365 50.8189 196.335 50.539 196.308C50.5122 196.599 50.4872 196.881 50.4634 197.152C50.7308 197.202 50.9993 197.249 51.2691 197.299Z" fill="#222859"/>
<path d="M98.8966 128.375C99.1878 127.747 108.774 127.379 109.702 128.318C110.628 129.257 108.193 133.614 104.116 133.322C99.8833 133.019 98.3308 129.594 98.8966 128.375Z" fill="#222859"/>
<path d="M108.417 131.672C105.924 130.267 102.691 130.31 100.211 131.722C101.084 132.537 102.368 133.197 104.115 133.322C105.922 133.452 107.404 132.667 108.417 131.672Z" fill="#ED6C6B"/>
<path d="M98.8966 128.375C98.8216 128.536 98.7864 128.739 98.7876 128.966C99.3795 129.446 100.351 129.517 101.173 129.491C104.071 129.398 106.969 129.305 109.867 129.211C109.932 128.823 109.885 128.504 109.702 128.318C108.775 127.379 99.1878 127.747 98.8966 128.375Z" fill="white"/>
<path d="M42.4536 249.718C57.6448 249.718 69.9596 246.352 69.9596 242.199C69.9596 238.046 57.6448 234.68 42.4536 234.68C27.2624 234.68 14.9475 238.046 14.9475 242.199C14.9475 246.352 27.2624 249.718 42.4536 249.718Z" fill="#495E84"/>
<path d="M43.6082 246.778C57.7769 246.778 69.2629 243.926 69.2629 240.408C69.2629 236.889 57.7769 234.037 43.6082 234.037C29.4395 234.037 17.9535 236.889 17.9535 240.408C17.9535 243.926 29.4395 246.778 43.6082 246.778Z" fill="#D5F2F9"/>
<path d="M59.5536 240.407C59.5536 241.973 52.4143 243.241 43.6083 243.241C34.8022 243.241 27.663 241.973 27.663 240.407C27.663 238.842 34.8022 237.573 43.6083 237.573C52.4143 237.573 59.5536 238.842 59.5536 240.407Z" fill="#9DC9DD"/>
<path d="M28.5799 223.162C28.5799 223.162 22.4584 221.629 21.7051 227.246C20.9518 232.863 24.5813 238.684 33.4832 236.766L32.3875 233.547C32.3875 233.547 25.8109 235.742 24.751 230.056C23.691 224.369 28.8658 225.869 28.8658 225.869L28.5799 223.162Z" fill="white"/>
<path d="M26.4785 225.813C27.6218 225.511 28.8658 225.869 28.8658 225.869L28.58 223.163C28.58 223.163 28.0405 223.029 27.2652 222.985L26.4785 225.813Z" fill="#222859"/>
<path d="M33.4832 236.767L32.3875 233.547C32.3875 233.547 30.9994 234.009 29.397 233.958L29.9669 237.132C31.0328 237.154 32.2017 237.043 33.4832 236.767Z" fill="#222859"/>
<path d="M27.6629 218.908C27.6629 218.908 24.938 241.801 43.6082 241.801C62.2785 241.801 59.5535 218.908 59.5535 218.908H27.6629Z" fill="white"/>
<path d="M43.6083 223.14C52.4146 223.14 59.5536 221.245 59.5536 218.909C59.5536 216.572 52.4146 214.677 43.6083 214.677C34.8019 214.677 27.663 216.572 27.663 218.909C27.663 221.245 34.8019 223.14 43.6083 223.14Z" fill="#D5F2F9"/>
<path d="M43.6082 222.055C51.4569 222.055 57.8195 220.646 57.8195 218.909C57.8195 217.171 51.4569 215.762 43.6082 215.762C35.7596 215.762 29.397 217.171 29.397 218.909C29.397 220.646 35.7596 222.055 43.6082 222.055Z" fill="#222859"/>
<path d="M30.6005 220.176C32.8026 221.283 37.7963 222.055 43.6082 222.055C49.4202 222.055 54.4139 221.283 56.616 220.176C54.4139 219.07 49.4202 218.297 43.6082 218.297C37.7963 218.297 32.8026 219.069 30.6005 220.176Z" fill="#FFCE5E"/>
<path d="M30.6005 220.176C32.8026 221.283 37.7963 222.055 43.6082 222.055C49.4202 222.055 54.4139 221.283 56.616 220.176C56.3498 220.042 56.0408 219.914 55.696 219.79C53.8286 220.576 51.8134 221.031 49.793 221.238C46.8388 221.541 43.8589 221.357 40.8976 221.138C39.8823 221.063 38.8051 220.961 37.9928 220.347C37.473 219.954 37.1401 219.271 37.1544 218.642C34.2508 218.971 31.9213 219.513 30.6005 220.176Z" fill="#FF8F3D"/>
<path d="M139.11 78.3721L131.917 88.8568C131.459 89.5239 132.009 90.4179 132.811 90.3101L146.775 88.4339L139.11 78.3721Z" fill="#FFCE5E"/>
<path d="M208.05 232.708C217.233 232.708 224.678 230.439 224.678 227.639C224.678 224.838 217.233 222.569 208.05 222.569C198.866 222.569 191.421 224.838 191.421 227.639C191.421 230.439 198.866 232.708 208.05 232.708Z" fill="#495E84"/>
<path d="M194.645 178.134C193.854 175.038 193.128 171.823 193.657 168.672C193.802 167.811 194.054 166.936 194.619 166.269C195.184 165.603 196.123 165.195 196.954 165.463C197.962 165.789 198.444 166.909 198.792 167.909C201.393 175.374 203.339 183.067 204.602 190.871C204.935 192.926 205.323 195.975 203.732 197.655C201.837 199.656 200.509 198.09 199.921 196.166C198.094 190.189 196.197 184.201 194.645 178.134Z" fill="#83BAA8"/>
<path d="M199.779 147.314C199.83 145.87 199.909 144.388 200.491 143.065C201.071 141.743 202.266 140.593 203.707 140.482C205.187 140.368 206.573 141.377 207.338 142.65C208.103 143.923 208.369 145.424 208.613 146.889C210.678 159.327 212.084 172.025 210.452 184.526C210.089 187.309 209.577 190.073 208.929 192.805C208.676 193.869 208.391 194.954 207.764 195.85C207.137 196.746 206.091 197.426 205.003 197.319C201.904 197.017 202.429 190.245 202.187 188.194C201.653 183.666 201.153 179.134 200.743 174.594C199.924 165.528 199.457 156.417 199.779 147.314Z" fill="#83BAA8"/>
<path d="M209.269 200.938C206.76 195.529 206.652 189.332 207.042 183.383C207.536 175.836 208.759 168.337 210.687 161.024C211.841 156.65 213.317 152.212 216.278 148.791C216.88 148.095 217.704 147.392 218.608 147.567C219.559 147.751 220.052 148.79 220.342 149.713C222.608 156.904 221.518 164.685 220.084 172.087C218.467 180.437 216.437 188.713 213.822 196.806C213.407 198.093 212.863 199.508 211.64 200.087C210.418 200.665 208.553 199.528 209.068 198.277C208.939 199.05 208.929 200.232 209.269 200.938Z" fill="#83BAA8"/>
<path d="M222.188 166.759C223.052 165.55 224.009 164.348 225.31 163.628C225.849 163.33 226.48 163.119 227.078 163.267C227.891 163.468 228.425 164.298 228.54 165.128C228.656 165.958 228.439 166.794 228.219 167.603C225.185 178.766 221.323 189.698 216.836 200.36C216.426 201.335 215.292 203.525 213.839 202.654C212.884 202.082 213.326 200.215 213.297 199.3C213.173 195.416 213.104 191.661 213.696 187.799C214.852 180.257 217.748 172.972 222.188 166.759Z" fill="#83BAA8"/>
<path d="M200.103 186.788C199.588 184.776 199.117 182.687 199.46 180.639C199.555 180.079 199.719 179.51 200.086 179.077C200.453 178.644 201.063 178.379 201.603 178.554C202.258 178.766 202.571 179.494 202.798 180.144C204.488 184.995 205.752 189.995 206.574 195.066C206.79 196.402 207.042 198.383 206.008 199.476C204.776 200.776 203.913 199.759 203.531 198.508C202.344 194.623 201.112 190.732 200.103 186.788Z" fill="#4D867E"/>
<path d="M203.439 166.759C203.473 165.82 203.525 164.858 203.902 163.997C204.28 163.137 205.056 162.39 205.992 162.318C206.955 162.245 207.855 162.9 208.352 163.728C208.849 164.555 209.023 165.531 209.181 166.483C210.522 174.566 211.436 182.819 210.376 190.943C210.14 192.752 209.807 194.549 209.386 196.324C209.222 197.015 209.037 197.72 208.629 198.303C208.221 198.885 207.541 199.327 206.834 199.258C204.821 199.061 205.162 194.66 205.004 193.327C204.657 190.385 204.332 187.439 204.066 184.488C203.534 178.596 203.23 172.674 203.439 166.759Z" fill="#4D867E"/>
<path d="M209.608 201.609C207.976 198.094 207.906 194.067 208.16 190.2C208.481 185.295 209.276 180.422 210.529 175.669C211.279 172.826 212.239 169.942 214.162 167.719C214.554 167.266 215.09 166.809 215.677 166.923C216.295 167.042 216.615 167.718 216.805 168.318C218.277 172.991 217.569 178.048 216.637 182.858C215.586 188.285 214.266 193.664 212.566 198.924C212.296 199.76 211.943 200.679 211.149 201.055C210.354 201.431 209.142 200.692 209.477 199.88C209.393 200.382 209.386 201.151 209.608 201.609Z" fill="#4D867E"/>
<path d="M218.003 179.396C218.565 178.61 219.187 177.828 220.032 177.361C220.382 177.167 220.793 177.03 221.181 177.126C221.709 177.257 222.056 177.796 222.131 178.335C222.206 178.874 222.065 179.418 221.922 179.943C219.951 187.199 217.441 194.303 214.524 201.233C214.258 201.866 213.521 203.289 212.577 202.724C211.956 202.352 212.244 201.138 212.225 200.544C212.144 198.019 212.099 195.579 212.484 193.069C213.236 188.168 215.118 183.434 218.003 179.396Z" fill="#4D867E"/>
<path d="M222.961 227.805C222.961 227.805 218.561 229.815 209.675 229.815C200.79 229.815 196.39 227.805 196.39 227.805V191.96H222.961V227.805H222.961Z" fill="#FF8F3D"/>
<path d="M222.961 198.741C222.715 198.918 222.467 199.093 222.2 199.238C221.384 199.683 220.401 199.768 219.521 199.464C218.028 198.948 217.158 197.423 215.714 196.798C214.453 196.252 213.186 196.61 212.108 197.362C211.109 198.059 210.3 199.097 209.183 199.613C207.967 200.174 206.938 199.402 206.06 198.603C205.171 197.792 204.283 196.815 203.059 196.548C201.336 196.172 200.318 197.478 199.062 198.373C198.065 199.084 197.172 198.812 196.39 198.206V199.625C196.625 199.76 196.872 199.879 197.139 199.954C198.605 200.368 199.715 199.498 200.772 198.614C201.268 198.2 201.82 197.745 202.504 197.779C203.105 197.81 203.622 198.199 204.066 198.571C204.999 199.352 205.783 200.327 206.903 200.858C209.538 202.107 211.174 199.556 213.146 198.354C214.529 197.511 215.611 198.266 216.683 199.233C217.872 200.306 219.091 201.174 220.77 201.135C221.56 201.117 222.284 200.903 222.961 200.54V198.741H222.961Z" fill="#222859"/>
<path d="M203.003 200.819C202.955 200.69 202.905 200.561 202.795 200.469C202.789 200.465 202.784 200.46 202.779 200.456L202.746 200.429C202.677 200.355 202.595 200.302 202.5 200.271C202.409 200.224 202.311 200.202 202.206 200.205C202.101 200.201 202.003 200.223 201.912 200.271C201.817 200.302 201.735 200.355 201.666 200.429C201.626 200.481 201.586 200.532 201.546 200.584C201.477 200.703 201.443 200.831 201.442 200.969C201.451 201.037 201.461 201.104 201.47 201.172C201.506 201.301 201.571 201.414 201.666 201.509C201.675 201.52 201.684 201.531 201.693 201.541L201.706 201.557C201.798 201.668 201.926 201.718 202.056 201.766C202.193 201.803 202.329 201.803 202.465 201.766C202.596 201.73 202.709 201.663 202.805 201.568C202.9 201.472 202.966 201.359 203.002 201.229C203.039 201.092 203.039 200.956 203.003 200.819Z" fill="white"/>
<path d="M198.574 196.642C198.527 196.515 198.479 196.39 198.371 196.3C198.365 196.296 198.36 196.291 198.355 196.287L198.324 196.26C198.256 196.188 198.176 196.136 198.084 196.106C197.995 196.059 197.899 196.038 197.796 196.042C197.694 196.038 197.598 196.059 197.508 196.106C197.416 196.136 197.336 196.188 197.268 196.26C197.23 196.31 197.19 196.361 197.152 196.412C197.084 196.528 197.051 196.653 197.05 196.789C197.059 196.855 197.068 196.921 197.077 196.987C197.112 197.113 197.176 197.223 197.268 197.316C197.277 197.327 197.286 197.337 197.295 197.348L197.308 197.363C197.398 197.472 197.523 197.52 197.65 197.567C197.784 197.603 197.917 197.603 198.05 197.567C198.178 197.531 198.289 197.467 198.382 197.374C198.475 197.279 198.54 197.169 198.576 197.042C198.61 196.909 198.61 196.776 198.574 196.642Z" fill="white"/>
<path d="M213.973 200.819C213.925 200.69 213.876 200.561 213.765 200.469C213.759 200.465 213.754 200.46 213.748 200.456L213.716 200.429C213.647 200.355 213.565 200.302 213.47 200.271C213.379 200.224 213.281 200.202 213.176 200.205C213.071 200.201 212.973 200.223 212.882 200.271C212.787 200.302 212.705 200.355 212.636 200.429C212.596 200.481 212.556 200.532 212.516 200.584C212.447 200.703 212.413 200.831 212.412 200.969C212.421 201.037 212.431 201.104 212.44 201.172C212.476 201.301 212.541 201.414 212.636 201.509C212.645 201.52 212.654 201.531 212.663 201.541L212.676 201.557C212.768 201.668 212.896 201.718 213.026 201.766C213.163 201.803 213.299 201.803 213.435 201.766C213.566 201.73 213.679 201.663 213.775 201.568C213.87 201.472 213.936 201.359 213.972 201.229C214.009 201.092 214.009 200.956 213.973 200.819Z" fill="white"/>
<path d="M209.544 196.642C209.497 196.515 209.449 196.39 209.341 196.3C209.335 196.296 209.33 196.291 209.325 196.287L209.294 196.26C209.226 196.188 209.146 196.136 209.054 196.106C208.965 196.059 208.869 196.038 208.766 196.042C208.663 196.038 208.568 196.059 208.478 196.106C208.386 196.136 208.306 196.188 208.238 196.26C208.2 196.31 208.16 196.361 208.122 196.412C208.054 196.528 208.02 196.653 208.02 196.789C208.029 196.855 208.038 196.921 208.047 196.987C208.082 197.113 208.146 197.223 208.238 197.316C208.247 197.327 208.256 197.337 208.265 197.348L208.278 197.363C208.368 197.472 208.493 197.52 208.62 197.567C208.754 197.603 208.887 197.603 209.02 197.567C209.148 197.531 209.259 197.467 209.352 197.374C209.445 197.279 209.51 197.169 209.546 197.042C209.58 196.909 209.58 196.776 209.544 196.642Z" fill="white"/>
<path d="M221.369 196.642C221.322 196.515 221.274 196.39 221.165 196.3C221.16 196.296 221.155 196.291 221.15 196.287L221.118 196.26C221.05 196.188 220.971 196.136 220.878 196.106C220.79 196.059 220.694 196.038 220.591 196.042C220.488 196.038 220.392 196.059 220.303 196.106C220.21 196.136 220.13 196.188 220.063 196.26C220.024 196.31 219.985 196.361 219.946 196.412C219.879 196.528 219.845 196.653 219.844 196.789C219.853 196.855 219.862 196.921 219.871 196.987C219.907 197.113 219.971 197.223 220.063 197.316C220.071 197.327 220.08 197.337 220.089 197.348L220.102 197.363C220.192 197.472 220.318 197.52 220.445 197.567C220.578 197.603 220.712 197.603 220.845 197.567C220.972 197.531 221.083 197.467 221.177 197.374C221.27 197.279 221.334 197.169 221.37 197.042C221.405 196.909 221.405 196.776 221.369 196.642Z" fill="white"/>
<path d="M56.706 66.219H12.5102C11.5021 66.219 10.6851 67.0362 10.6851 68.0446V119.45C10.6851 120.458 11.5021 121.275 12.5102 121.275H56.706C57.7135 121.275 58.5311 120.458 58.5311 119.45V68.0446C58.5305 67.0362 57.7135 66.219 56.706 66.219Z" fill="#9DC9DD"/>
<path d="M51.6604 72.6399H17.5558C16.7781 72.6399 16.1475 73.2665 16.1475 74.0396V113.455C16.1475 114.228 16.7781 114.855 17.5558 114.855H51.6604C52.4381 114.855 53.0688 114.228 53.0688 113.455V74.0396C53.0688 73.2665 52.4381 72.6399 51.6604 72.6399Z" fill="#D5F2F9"/>
<path d="M43.8702 81.8933H25.3459C24.9237 81.8933 24.5807 82.2453 24.5807 82.6795V104.815C24.5807 105.249 24.9231 105.601 25.3459 105.601H43.8702C44.2924 105.601 44.6354 105.249 44.6354 104.815V82.6795C44.6349 82.2453 44.2924 81.8933 43.8702 81.8933Z" fill="white"/>
<path d="M239.256 87.6787H200.288C199.4 87.6787 198.679 88.3994 198.679 89.2881V134.612C198.679 135.501 199.4 136.221 200.288 136.221H239.256C240.144 136.221 240.865 135.501 240.865 134.612V89.2881C240.865 88.3988 240.144 87.6787 239.256 87.6787Z" fill="#9DC9DD"/>
<path d="M234.807 93.3396H204.736C204.05 93.3396 203.495 93.8923 203.495 94.5737V129.327C203.495 130.008 204.05 130.561 204.736 130.561H234.807C235.493 130.561 236.048 130.008 236.048 129.327V94.5737C236.048 93.8923 235.493 93.3396 234.807 93.3396Z" fill="#D5F2F9"/>
<path d="M230.218 98.5811H209.325C208.849 98.5811 208.462 98.9777 208.462 99.4673V124.432C208.462 124.922 208.849 125.319 209.325 125.319H230.218C230.694 125.319 231.081 124.922 231.081 124.432V99.4673C231.081 98.9777 230.695 98.5811 230.218 98.5811Z" fill="white"/>
<path d="M148.368 140.101C146.153 139.057 142.797 141.173 143.459 143.798C143.802 145.156 145.164 146.033 146.519 146.042C147.98 146.051 149.697 145.128 150.116 143.653C150.525 142.217 149.677 140.718 148.368 140.101ZM149.09 143.184C149.08 143.227 149.071 143.27 149.059 143.312C149.047 143.357 149.031 143.401 149.015 143.446C149.005 143.463 148.965 143.547 148.953 143.57C148.82 143.804 148.661 143.967 148.404 144.178C148.392 144.186 148.297 144.259 148.28 144.27C148.223 144.31 148.165 144.348 148.105 144.386C147.972 144.471 147.835 144.549 147.693 144.618C147.504 144.712 147.559 144.686 147.391 144.743C147.208 144.805 147.024 144.849 146.836 144.891C145.924 145.091 144.924 144.631 144.491 143.821C144.47 143.783 144.451 143.743 144.432 143.703C144.431 143.687 144.382 143.543 144.381 143.54C144.365 143.482 144.352 143.423 144.339 143.365C144.334 143.341 144.33 143.326 144.326 143.314C144.328 143.305 144.33 143.29 144.332 143.262C144.336 143.191 144.332 143.119 144.335 143.048C144.337 143.02 144.337 143.014 144.336 143.012C144.341 142.989 144.344 142.966 144.349 142.943C144.364 142.873 144.381 142.803 144.402 142.735C144.411 142.705 144.495 142.478 144.436 142.624C144.519 142.42 144.642 142.146 144.775 141.975C144.904 141.811 145.05 141.626 145.165 141.434C145.172 141.432 145.179 141.431 145.186 141.429C145.346 141.383 145.461 141.283 145.599 141.199C145.599 141.199 145.628 141.182 145.659 141.163C145.671 141.162 145.869 141.064 145.931 141.035C145.955 141.024 146.003 141.006 146.029 140.997C146.088 140.978 146.147 140.958 146.207 140.943C146.258 140.93 146.413 140.909 146.436 140.903C146.558 140.894 146.68 140.887 146.803 140.892C146.845 140.894 147.002 140.913 147.033 140.914C147.194 140.943 147.354 140.978 147.51 141.026C147.588 141.05 147.665 141.077 147.742 141.104C147.75 141.107 147.772 141.116 147.792 141.125C147.903 141.177 148.014 141.234 148.119 141.297C148.189 141.339 148.256 141.383 148.323 141.429C148.342 141.442 148.352 141.448 148.358 141.451C148.368 141.461 148.376 141.467 148.39 141.48C148.51 141.588 148.625 141.699 148.732 141.821C148.864 141.973 148.778 141.885 148.755 141.852C148.801 141.919 148.844 141.987 148.884 142.058C148.92 142.123 148.955 142.189 148.985 142.258C148.99 142.273 148.994 142.285 149.002 142.312C149.036 142.423 149.065 142.535 149.09 142.649C149.095 142.684 149.104 142.742 149.106 142.765C149.112 142.862 149.112 142.958 149.106 143.055C149.107 143.084 149.092 143.166 149.09 143.184Z" fill="white"/>
<path d="M35.3465 195.196C33.1313 194.153 29.7751 196.268 30.4373 198.894C30.7797 200.252 32.1422 201.129 33.4975 201.138C34.9582 201.147 36.675 200.223 37.0942 198.749C37.5033 197.312 36.6553 195.814 35.3465 195.196ZM36.0682 198.28C36.0587 198.323 36.0497 198.366 36.0378 198.408C36.0253 198.452 36.0098 198.498 35.9943 198.542C35.9836 198.559 35.9443 198.644 35.9318 198.666C35.799 198.9 35.6406 199.064 35.3828 199.274C35.3709 199.282 35.2762 199.355 35.2595 199.366C35.2024 199.406 35.144 199.445 35.0844 199.482C34.9511 199.567 34.8135 199.644 34.6724 199.715C34.483 199.809 34.5378 199.782 34.3705 199.839C34.1876 199.902 34.003 199.946 33.8149 199.987C32.9032 200.187 31.9034 199.728 31.4699 198.918C31.449 198.879 31.4305 198.839 31.4115 198.799C31.4103 198.783 31.3609 198.639 31.3603 198.637C31.3442 198.578 31.3317 198.52 31.3186 198.461C31.3132 198.438 31.3091 198.423 31.3055 198.411C31.3073 198.401 31.3097 198.387 31.3109 198.359C31.315 198.288 31.3115 198.216 31.3138 198.145C31.3162 198.117 31.3162 198.111 31.3156 198.109C31.3198 198.086 31.3234 198.063 31.3281 198.04C31.343 197.97 31.3603 197.9 31.3811 197.832C31.3901 197.801 31.4746 197.574 31.4151 197.721C31.4978 197.516 31.6211 197.242 31.7545 197.072C31.8831 196.908 32.029 196.723 32.1439 196.531C32.1511 196.529 32.1582 196.528 32.1648 196.526C32.325 196.48 32.4405 196.38 32.5786 196.296C32.5786 196.296 32.6078 196.278 32.6382 196.261C32.6507 196.259 32.8478 196.161 32.9103 196.133C32.9341 196.122 32.9818 196.104 33.0086 196.094C33.0675 196.075 33.1259 196.055 33.186 196.04C33.2373 196.027 33.3927 196.006 33.4153 196C33.5374 195.991 33.6595 195.984 33.7821 195.989C33.8244 195.991 33.981 196.01 34.0114 196.011C34.1728 196.04 34.3323 196.075 34.489 196.123C34.567 196.147 34.6432 196.174 34.7206 196.201C34.7289 196.204 34.7504 196.213 34.7706 196.222C34.882 196.274 34.9921 196.331 35.0975 196.394C35.1672 196.435 35.2345 196.48 35.3012 196.525C35.3203 196.538 35.331 196.545 35.3369 196.548C35.3471 196.557 35.3542 196.564 35.3685 196.576C35.4888 196.685 35.6037 196.795 35.7103 196.918C35.8431 197.069 35.7562 196.981 35.7335 196.948C35.7794 197.015 35.8223 197.084 35.8622 197.155C35.8991 197.22 35.9336 197.286 35.964 197.354C35.9687 197.37 35.9723 197.381 35.9807 197.408C36.0146 197.52 36.0438 197.632 36.0682 197.745C36.0735 197.781 36.0831 197.838 36.0843 197.861C36.0896 197.958 36.0902 198.055 36.0855 198.151C36.0855 198.18 36.0706 198.262 36.0682 198.28Z" fill="white"/>
<path d="M100.247 63.5226C98.032 62.4791 94.6759 64.5948 95.338 67.2203C95.681 68.5783 97.0429 69.455 98.3982 69.464C99.859 69.4735 101.576 68.5497 101.995 67.0749C102.404 65.6389 101.556 64.1403 100.247 63.5226ZM100.969 66.6068C100.959 66.6497 100.95 66.6925 100.939 66.7348C100.926 66.7795 100.911 66.8242 100.895 66.8688C100.884 66.8855 100.844 66.9701 100.832 66.9927C100.699 67.2268 100.541 67.39 100.283 67.6003C100.271 67.6086 100.176 67.6813 100.16 67.6932C100.103 67.7331 100.044 67.7718 99.9846 67.8093C99.8512 67.8939 99.7137 67.9713 99.5725 68.0416C99.3832 68.1357 99.438 68.1089 99.2706 68.1661C99.0878 68.2286 98.9032 68.2727 98.715 68.3138C97.8033 68.5139 96.8035 68.0547 96.37 67.2447C96.3492 67.206 96.3307 67.1661 96.3117 67.1256C96.3105 67.1101 96.261 66.9653 96.2604 66.9629C96.2444 66.9046 96.2319 66.8462 96.2188 66.7878C96.2134 66.7646 96.2092 66.7491 96.2057 66.7378C96.208 66.7277 96.2098 66.7134 96.2116 66.6854C96.2158 66.6145 96.2122 66.5418 96.2146 66.471C96.217 66.4436 96.217 66.437 96.2164 66.4352C96.2205 66.4126 96.2241 66.3894 96.2289 66.3667C96.2438 66.2964 96.261 66.2268 96.2819 66.1583C96.2908 66.1279 96.3754 65.901 96.3158 66.0475C96.3986 65.8432 96.5219 65.5692 96.6553 65.3982C96.7839 65.2344 96.9298 65.0492 97.0447 64.8574C97.0518 64.8556 97.059 64.8544 97.0655 64.8527C97.2257 64.8062 97.3412 64.7067 97.4788 64.6222C97.4788 64.6222 97.508 64.6049 97.5384 64.5864C97.5509 64.5852 97.748 64.4869 97.8105 64.4584C97.8343 64.447 97.8819 64.4298 97.9087 64.4202C97.9677 64.4012 98.0261 64.3809 98.0862 64.366C98.138 64.3529 98.2928 64.3321 98.3155 64.3261C98.4375 64.3178 98.559 64.3106 98.6823 64.3154C98.7246 64.3172 98.8812 64.3363 98.9121 64.3374C99.0735 64.3666 99.2331 64.4012 99.3897 64.4494C99.4677 64.4732 99.544 64.5006 99.6214 64.5274C99.6297 64.5304 99.6511 64.5394 99.6714 64.5483C99.7827 64.6007 99.8929 64.6573 99.9983 64.7204C100.068 64.7621 100.135 64.8062 100.202 64.8515C100.221 64.8646 100.232 64.8711 100.238 64.8741C100.248 64.8836 100.255 64.8902 100.269 64.9027C100.39 65.0105 100.504 65.1219 100.611 65.244C100.744 65.3959 100.657 65.3077 100.634 65.2744C100.68 65.3417 100.723 65.4102 100.763 65.481C100.799 65.546 100.834 65.6121 100.865 65.6806C100.87 65.6961 100.873 65.7074 100.881 65.7348C100.915 65.8462 100.945 65.9581 100.969 66.0719C100.974 66.107 100.984 66.1648 100.985 66.1874C100.99 66.2845 100.991 66.381 100.986 66.4775C100.986 66.5067 100.971 66.5889 100.969 66.6068Z" fill="white"/>
<path d="M233.457 186.987C231.242 185.944 227.886 188.059 228.548 190.685C228.891 192.043 230.253 192.92 231.608 192.929C233.069 192.938 234.786 192.014 235.205 190.54C235.614 189.103 234.766 187.605 233.457 186.987ZM234.178 190.071C234.169 190.114 234.16 190.157 234.148 190.199C234.136 190.243 234.12 190.288 234.105 190.333C234.094 190.35 234.055 190.434 234.042 190.457C233.909 190.691 233.751 190.854 233.493 191.064C233.481 191.073 233.386 191.145 233.37 191.157C233.313 191.196 233.254 191.235 233.195 191.273C233.061 191.357 232.924 191.435 232.783 191.505C232.593 191.599 232.648 191.572 232.481 191.63C232.298 191.692 232.113 191.736 231.925 191.777C231.013 191.977 230.014 191.518 229.58 190.708C229.559 190.669 229.541 190.629 229.522 190.59C229.521 190.574 229.471 190.429 229.471 190.427C229.454 190.369 229.442 190.31 229.429 190.251C229.423 190.228 229.419 190.213 229.416 190.201C229.418 190.191 229.42 190.177 229.421 190.149C229.425 190.078 229.422 190.005 229.424 189.934C229.426 189.907 229.426 189.9 229.426 189.899C229.43 189.876 229.434 189.853 229.438 189.83C229.453 189.76 229.471 189.69 229.491 189.622C229.5 189.591 229.585 189.364 229.525 189.511C229.608 189.307 229.731 189.033 229.865 188.862C229.993 188.698 230.139 188.513 230.254 188.321C230.261 188.319 230.268 188.318 230.275 188.316C230.435 188.27 230.551 188.17 230.688 188.086C230.688 188.086 230.717 188.068 230.748 188.05C230.76 188.049 230.957 187.95 231.02 187.922C231.044 187.911 231.091 187.893 231.118 187.883C231.177 187.864 231.236 187.844 231.296 187.829C231.347 187.816 231.502 187.795 231.525 187.789C231.647 187.781 231.769 187.773 231.892 187.778C231.934 187.78 232.091 187.799 232.122 187.8C232.283 187.829 232.443 187.865 232.599 187.912C232.677 187.936 232.753 187.963 232.831 187.99C232.839 187.993 232.861 188.002 232.881 188.011C232.992 188.064 233.102 188.12 233.208 188.183C233.277 188.224 233.345 188.269 233.411 188.314C233.43 188.327 233.441 188.334 233.447 188.337C233.457 188.346 233.464 188.353 233.479 188.366C233.599 188.473 233.714 188.585 233.821 188.707C233.953 188.859 233.866 188.771 233.844 188.737C233.89 188.804 233.933 188.873 233.972 188.944C234.009 189.009 234.044 189.075 234.074 189.143C234.079 189.159 234.083 189.17 234.091 189.198C234.125 189.309 234.154 189.421 234.178 189.535C234.184 189.57 234.193 189.628 234.195 189.65C234.2 189.747 234.2 189.844 234.196 189.94C234.196 189.971 234.181 190.053 234.178 190.071Z" fill="white"/>
<path d="M155.467 148.171C153.756 147.365 151.164 148.999 151.676 151.026C151.94 152.075 152.992 152.752 154.039 152.759C155.167 152.766 156.493 152.053 156.816 150.914C157.131 149.805 156.477 148.648 155.467 148.171ZM156.023 150.553C156.016 150.585 156.009 150.619 156 150.651C155.991 150.685 155.978 150.721 155.966 150.754C155.958 150.768 155.927 150.833 155.918 150.85C155.815 151.03 155.693 151.157 155.494 151.319C155.484 151.325 155.412 151.382 155.399 151.391C155.355 151.422 155.309 151.451 155.263 151.481C155.16 151.545 155.054 151.606 154.945 151.66C154.799 151.732 154.841 151.712 154.712 151.756C154.571 151.805 154.429 151.839 154.283 151.871C153.579 152.025 152.807 151.671 152.472 151.045C152.456 151.015 152.442 150.984 152.428 150.953C152.427 150.942 152.389 150.83 152.388 150.828C152.376 150.782 152.366 150.738 152.356 150.693C152.352 150.675 152.349 150.663 152.346 150.654C152.348 150.646 152.349 150.635 152.35 150.613C152.353 150.559 152.351 150.503 152.353 150.448C152.354 150.427 152.354 150.422 152.354 150.42C152.357 150.402 152.36 150.385 152.363 150.367C152.375 150.313 152.388 150.259 152.405 150.206C152.412 150.183 152.477 150.007 152.431 150.12C152.494 149.962 152.59 149.751 152.693 149.619C152.792 149.492 152.905 149.35 152.993 149.202C152.999 149.2 153.004 149.199 153.01 149.198C153.133 149.162 153.223 149.086 153.329 149.02C153.329 149.02 153.351 149.007 153.375 148.993C153.384 148.992 153.537 148.916 153.585 148.894C153.603 148.885 153.64 148.872 153.661 148.864C153.706 148.849 153.752 148.834 153.798 148.822C153.838 148.812 153.958 148.795 153.975 148.791C154.07 148.784 154.164 148.779 154.259 148.782C154.292 148.784 154.412 148.798 154.436 148.799C154.561 148.822 154.684 148.848 154.805 148.885C154.865 148.904 154.924 148.925 154.984 148.946C154.99 148.948 155.007 148.955 155.022 148.962C155.109 149.002 155.193 149.046 155.275 149.094C155.328 149.127 155.38 149.161 155.432 149.196C155.447 149.206 155.455 149.211 155.46 149.213C155.468 149.22 155.473 149.226 155.484 149.235C155.577 149.318 155.666 149.404 155.748 149.498C155.851 149.616 155.783 149.548 155.766 149.522C155.801 149.573 155.835 149.626 155.865 149.681C155.894 149.731 155.921 149.782 155.944 149.835C155.948 149.847 155.951 149.855 155.957 149.877C155.983 149.963 156.006 150.049 156.024 150.137C156.029 150.164 156.036 150.209 156.037 150.227C156.041 150.302 156.042 150.376 156.038 150.451C156.037 150.475 156.025 150.538 156.023 150.553Z" fill="white"/>
<path d="M10.1187 155.438C8.43404 154.645 5.8812 156.254 6.38498 158.251C6.6458 159.284 7.68135 159.951 8.71273 159.957C9.82391 159.965 11.1292 159.262 11.4484 158.14C11.7592 157.048 11.1143 155.908 10.1187 155.438ZM10.6677 157.784C10.6606 157.817 10.654 157.849 10.6445 157.882C10.635 157.916 10.623 157.95 10.6111 157.983C10.6034 157.996 10.573 158.06 10.5635 158.078C10.4623 158.256 10.342 158.38 10.1461 158.54C10.1371 158.546 10.0651 158.601 10.0526 158.61C10.0091 158.64 9.96444 158.67 9.91978 158.699C9.81855 158.763 9.71374 158.822 9.60655 158.876C9.46245 158.947 9.50413 158.927 9.3767 158.97C9.23735 159.018 9.09741 159.051 8.9539 159.083C8.26016 159.235 7.49973 158.886 7.17042 158.27C7.15494 158.241 7.14065 158.21 7.12636 158.179C7.12517 158.168 7.08825 158.058 7.08765 158.056C7.07515 158.011 7.06621 157.967 7.05549 157.922C7.05133 157.905 7.04835 157.892 7.04597 157.884C7.04775 157.876 7.04894 157.866 7.05014 157.844C7.05311 157.79 7.05073 157.735 7.05252 157.681C7.0543 157.66 7.0543 157.655 7.05371 157.654C7.05669 157.636 7.05966 157.619 7.06324 157.602C7.07455 157.548 7.08765 157.496 7.10373 157.443C7.11087 157.421 7.17459 157.247 7.12933 157.359C7.19246 157.203 7.28595 156.995 7.38778 156.865C7.48603 156.74 7.59679 156.599 7.68373 156.453C7.68909 156.452 7.69445 156.451 7.69981 156.45C7.82188 156.415 7.90942 156.339 8.01423 156.275C8.01423 156.275 8.03626 156.262 8.05948 156.248C8.06901 156.247 8.21848 156.172 8.26671 156.15C8.28458 156.142 8.3209 156.129 8.34174 156.121C8.3864 156.106 8.43107 156.091 8.47692 156.079C8.51622 156.069 8.63413 156.054 8.6514 156.049C8.74429 156.042 8.83659 156.037 8.93008 156.041C8.96224 156.042 9.08134 156.057 9.10456 156.057C9.22723 156.079 9.34871 156.106 9.46781 156.142C9.52736 156.16 9.58512 156.181 9.64407 156.201C9.65062 156.204 9.6667 156.211 9.68218 156.217C9.76733 156.257 9.8507 156.3 9.93109 156.348C9.98409 156.38 10.0353 156.413 10.0859 156.449C10.1008 156.459 10.1085 156.463 10.1133 156.466C10.1211 156.473 10.1264 156.478 10.1371 156.488C10.2288 156.57 10.3158 156.655 10.3968 156.748C10.4974 156.863 10.4313 156.796 10.414 156.771C10.4486 156.822 10.4813 156.874 10.5123 156.928C10.5403 156.977 10.5665 157.028 10.5897 157.08C10.5933 157.092 10.5963 157.1 10.6022 157.122C10.6284 157.206 10.6498 157.291 10.6689 157.378C10.6731 157.405 10.6802 157.448 10.6814 157.466C10.6856 157.54 10.6862 157.613 10.682 157.686C10.6808 157.708 10.6695 157.77 10.6677 157.784Z" fill="white"/>
<path d="M48.5596 134.445C46.8494 133.639 44.2573 135.273 44.7688 137.301C45.0332 138.349 46.0854 139.027 47.1317 139.033C48.2595 139.04 49.5857 138.327 49.909 137.188C50.2252 136.079 49.5708 134.922 48.5596 134.445ZM49.117 136.827C49.1099 136.86 49.1027 136.893 49.0938 136.926C49.0843 136.96 49.0724 136.995 49.0599 137.029C49.0515 137.042 49.0211 137.107 49.0116 137.124C48.9092 137.305 48.7871 137.431 48.5876 137.593C48.5781 137.599 48.5055 137.655 48.4924 137.664C48.4483 137.695 48.403 137.725 48.3572 137.754C48.2542 137.819 48.1482 137.879 48.0392 137.934C47.8927 138.006 47.935 137.985 47.8058 138.03C47.6646 138.078 47.5223 138.112 47.3764 138.144C46.6725 138.299 45.9002 137.944 45.5655 137.319C45.5495 137.289 45.5352 137.258 45.5209 137.227C45.5203 137.215 45.4822 137.103 45.4816 137.102C45.4691 137.056 45.4595 137.012 45.4494 136.966C45.4453 136.948 45.4423 136.937 45.4393 136.928C45.4411 136.92 45.4423 136.909 45.4435 136.887C45.4464 136.832 45.4441 136.776 45.4459 136.722C45.4476 136.701 45.4476 136.695 45.447 136.694C45.45 136.676 45.453 136.658 45.4566 136.641C45.4679 136.586 45.4816 136.533 45.4977 136.48C45.5048 136.457 45.5697 136.281 45.5239 136.394C45.5876 136.236 45.6829 136.024 45.7859 135.892C45.8853 135.766 45.9979 135.623 46.0866 135.475C46.0919 135.473 46.0973 135.473 46.1027 135.471C46.2265 135.435 46.3153 135.358 46.4219 135.293C46.4219 135.293 46.4445 135.28 46.4683 135.265C46.4778 135.265 46.6303 135.188 46.6785 135.166C46.697 135.158 46.7339 135.144 46.7547 135.137C46.8 135.122 46.8452 135.106 46.8917 135.094C46.9316 135.084 47.0513 135.068 47.0691 135.063C47.1632 135.057 47.2573 135.051 47.3526 135.055C47.3853 135.056 47.5062 135.071 47.53 135.072C47.6545 135.094 47.7778 135.121 47.8987 135.158C47.9588 135.177 48.0178 135.197 48.0773 135.218C48.0838 135.221 48.1005 135.228 48.116 135.234C48.2024 135.275 48.2869 135.318 48.3685 135.367C48.4221 135.399 48.4739 135.433 48.5257 135.468C48.5406 135.478 48.5489 135.483 48.5537 135.486C48.5614 135.493 48.5668 135.498 48.5781 135.508C48.671 135.591 48.7597 135.677 48.8419 135.771C48.9443 135.888 48.877 135.82 48.8598 135.794C48.8949 135.846 48.9282 135.899 48.9592 135.954C48.9878 136.004 49.0146 136.055 49.0378 136.107C49.0414 136.119 49.0444 136.128 49.0509 136.15C49.0771 136.236 49.0997 136.322 49.1182 136.41C49.1224 136.437 49.1295 136.482 49.1307 136.499C49.1349 136.574 49.1355 136.649 49.1313 136.723C49.1301 136.75 49.1188 136.813 49.117 136.827Z" fill="white"/>
<path d="M190.54 95.4104C188.83 94.6045 186.238 96.2383 186.749 98.2658C187.014 99.3147 188.066 99.992 189.113 99.9985C190.241 100.006 191.567 99.2921 191.89 98.1533C192.206 97.0448 191.551 95.8875 190.54 95.4104ZM191.097 97.7917C191.09 97.8245 191.083 97.8578 191.074 97.8906C191.064 97.9251 191.052 97.9597 191.04 97.9936C191.032 98.0067 191.001 98.0717 190.991 98.0889C190.889 98.2694 190.766 98.3957 190.567 98.5577C190.558 98.5636 190.485 98.6202 190.472 98.6292C190.428 98.6601 190.383 98.6899 190.337 98.7191C190.234 98.7846 190.128 98.8442 190.019 98.8984C189.873 98.9711 189.915 98.9508 189.786 98.9949C189.645 99.0431 189.502 99.0771 189.357 99.1092C188.653 99.2635 187.881 98.9091 187.546 98.2837C187.53 98.2539 187.516 98.2229 187.501 98.192C187.501 98.1801 187.463 98.0681 187.462 98.0663C187.45 98.021 187.44 97.9764 187.43 97.9311C187.426 97.9132 187.423 97.9013 187.42 97.8924C187.422 97.8846 187.423 97.8733 187.424 97.8519C187.427 97.7971 187.425 97.7411 187.426 97.6863C187.428 97.6654 187.428 97.6601 187.428 97.6583C187.43 97.6404 187.433 97.6232 187.437 97.6053C187.448 97.5511 187.462 97.4975 187.478 97.4445C187.485 97.4212 187.55 97.2455 187.504 97.3587C187.568 97.2009 187.663 96.9894 187.766 96.8578C187.866 96.7309 187.978 96.5886 188.067 96.4402C188.072 96.4385 188.078 96.4379 188.083 96.4361C188.207 96.4003 188.296 96.3235 188.402 96.258C188.402 96.258 188.424 96.2449 188.448 96.2306C188.458 96.23 188.61 96.1538 188.658 96.1317C188.677 96.1234 188.714 96.1097 188.735 96.1019C188.78 96.087 188.825 96.0716 188.872 96.0596C188.911 96.0495 189.031 96.0334 189.049 96.0287C189.143 96.0221 189.237 96.0168 189.332 96.0203C189.365 96.0215 189.486 96.0364 189.51 96.037C189.634 96.0597 189.758 96.0864 189.879 96.1234C189.939 96.1418 189.998 96.1627 190.057 96.1835C190.064 96.1859 190.08 96.1931 190.096 96.1996C190.182 96.2401 190.267 96.2836 190.348 96.3324C190.402 96.3646 190.454 96.3986 190.506 96.4337C190.52 96.4438 190.529 96.4486 190.534 96.451C190.541 96.4581 190.547 96.4635 190.558 96.473C190.651 96.5564 190.74 96.6422 190.822 96.7363C190.924 96.8536 190.857 96.7857 190.84 96.7595C190.875 96.8113 190.908 96.8643 190.939 96.9191C190.968 96.9692 190.994 97.0204 191.018 97.0728C191.021 97.0847 191.024 97.0931 191.031 97.1151C191.057 97.2015 191.08 97.2872 191.098 97.3754C191.102 97.4022 191.109 97.4468 191.111 97.4647C191.115 97.5398 191.115 97.6142 191.111 97.6887C191.111 97.7143 191.099 97.778 191.097 97.7917Z" fill="white"/>
</svg>
