<svg width="298" height="283" viewBox="0 0 298 283" fill="none" xmlns="http://www.w3.org/2000/svg">
<path d="M157.882 282.993C53.9377 282.993 23.7753 270.098 9.39004 195.59C-4.99453 121.084 10.3187 4.0696 122.615 0.248472C234.912 -3.57266 264.146 37.0245 281.316 98.158C298.484 159.293 335.143 282.993 157.882 282.993Z" fill="#EF5A6F"/>
<path d="M287.336 95.4622C288.183 96.9961 289.399 98.5481 291.128 98.8334C292.741 99.0994 294.366 98.1281 295.308 96.7915C296.249 95.4549 296.632 93.8103 296.911 92.199C297.934 86.286 297.821 80.179 296.581 74.308C296.173 72.3774 295.634 70.4469 294.639 68.7423C292.839 65.6585 289.727 63.5939 286.619 61.8347C284.345 60.5474 281.555 59.3481 279.222 60.5254C277.665 61.3114 276.739 63.0259 276.49 64.7525C276.241 66.4791 276.573 68.2337 276.972 69.9316C278.984 78.4584 283.124 87.8326 287.336 95.4622Z" fill="#D5F2F9"/>
<path d="M255.236 23.5253C253.3 23.7953 251.795 25.2139 251.725 28.259C251.677 30.3949 252.747 32.4348 254.208 33.9934C255.903 35.802 258.528 37.1186 260.844 36.2353C262.921 35.4433 264.067 33.0675 264.013 30.8449C263.909 26.4845 258.832 23.0233 255.236 23.5253Z" fill="#D5F2F9"/>
<path d="M29.9349 39.4778C26.9351 42.339 23.6746 44.2275 20.2288 43.1156C12.9438 40.765 20.4994 28.8137 23.3373 25.1892C27.5891 19.7588 33.2208 14.9597 40.0057 13.7238C41.5617 13.4405 43.2576 13.3725 44.6308 14.1571C50.7592 17.6576 43.9102 24.9112 40.745 27.3484C37.7805 29.6303 34.11 35.496 29.9349 39.4778Z" fill="#D5F2F9"/>
<path d="M1.2205 90.3144H42.637C44.1089 89.0698 43.4756 84.6361 41.997 83.3995C40.5184 82.1629 37.9619 82.6142 36.9966 84.2828C37.1833 82.7308 36.1367 81.1203 34.6421 80.6596C33.1481 80.1996 31.3769 80.9423 30.6576 82.3295C32.6515 78.4831 28.8084 74.5399 25.3939 73.0734C18.8482 70.2622 14.7785 74.1946 13.9238 80.559C13.0352 78.781 10.4447 78.3277 8.7621 79.3857C7.07952 80.4436 6.32023 82.6022 6.50622 84.5807C6.03758 83.6341 4.66699 83.2848 3.80237 83.8914C2.93775 84.4981 2.79975 85.906 3.53038 86.6686C2.73042 85.79 1.17917 85.7613 0.347214 86.6093C-0.484742 87.4566 0.327216 89.5311 1.2205 90.3144Z" fill="white"/>
<path d="M229.944 57.4182H271.36C272.832 56.1736 272.199 51.7398 270.72 50.5032C269.242 49.2666 266.685 49.7179 265.72 51.3865C265.906 49.8346 264.86 48.224 263.365 47.7634C261.871 47.3034 260.1 48.046 259.381 49.4333C261.375 45.5868 257.532 41.6437 254.117 40.1771C247.571 37.3659 243.502 41.2984 242.647 47.6627C241.758 45.8848 239.168 45.4315 237.485 46.4894C235.803 47.5474 235.043 49.7053 235.229 51.6845C234.761 50.7379 233.39 50.3886 232.526 50.9952C231.661 51.6018 231.523 53.0098 232.254 53.7724C231.454 52.8938 229.902 52.8651 229.07 53.7131C228.239 54.5604 229.05 56.6349 229.944 57.4182Z" fill="white"/>
<path d="M20.3449 165.392H51.3446C52.4458 164.46 51.9725 161.141 50.8659 160.216C49.7593 159.29 47.8454 159.628 47.1235 160.877C47.2628 159.715 46.4795 158.51 45.3609 158.165C44.2429 157.821 42.917 158.377 42.3784 159.415C43.8703 156.536 40.9938 153.585 38.4386 152.488C33.5395 150.383 30.493 153.327 29.8537 158.09C29.1884 156.76 27.2492 156.42 25.9906 157.212C24.7313 158.004 24.1627 159.619 24.302 161.101C23.9514 160.392 22.9254 160.131 22.2781 160.585C21.6308 161.039 21.5281 162.093 22.0748 162.663C21.4762 162.006 20.3149 161.984 19.6922 162.619C19.0689 163.253 19.6762 164.805 20.3449 165.392Z" fill="white"/>
<path d="M100.633 26.8463H129.6C130.629 25.9757 130.186 22.8752 129.152 22.0099C128.118 21.1446 126.331 21.4606 125.655 22.6272C125.786 21.5413 125.053 20.4153 124.009 20.0934C122.964 19.7714 121.725 20.2907 121.222 21.2613C122.617 18.5714 119.929 15.8136 117.541 14.7876C112.963 12.8211 110.117 15.5723 109.519 20.0227C108.897 18.7794 107.086 18.4621 105.909 19.2021C104.732 19.942 104.201 21.4513 104.331 22.8352C104.004 22.1732 103.044 21.9286 102.44 22.3532C101.835 22.7772 101.738 23.7618 102.25 24.2958C101.69 23.6812 100.605 23.6612 100.023 24.2545C99.4406 24.8478 100.009 26.299 100.633 26.8463Z" fill="white"/>
<path d="M246.631 151.82H283.001C284.294 150.728 283.738 146.834 282.439 145.748C281.141 144.662 278.896 145.059 278.048 146.523C278.211 145.16 277.293 143.746 275.98 143.342C274.668 142.938 273.113 143.59 272.481 144.809C274.231 141.431 270.857 137.969 267.858 136.681C262.111 134.212 258.536 137.665 257.786 143.254C257.006 141.693 254.731 141.295 253.254 142.224C251.777 143.154 251.109 145.049 251.273 146.786C250.862 145.955 249.658 145.648 248.899 146.181C248.139 146.713 248.018 147.95 248.66 148.619C247.957 147.848 246.596 147.823 245.865 148.567C245.134 149.311 245.846 151.133 246.631 151.82Z" fill="white"/>
<path d="M222.663 68.2688L223.537 70.3987C223.58 70.5034 223.663 70.586 223.768 70.6294L225.898 71.5033C226.247 71.6466 226.247 72.1413 225.898 72.2846L223.768 73.1586C223.663 73.2012 223.581 73.2846 223.537 73.3892L222.663 75.5191C222.52 75.8684 222.025 75.8684 221.882 75.5191L221.008 73.3892C220.965 73.2846 220.882 73.2019 220.777 73.1586L218.648 72.2846C218.298 72.1413 218.298 71.6466 218.648 71.5033L220.777 70.6294C220.882 70.5867 220.965 70.5034 221.008 70.3987L221.882 68.2688C222.025 67.9195 222.52 67.9195 222.663 68.2688Z" fill="#FFCE5E"/>
<path d="M281.3 202.326L282.174 204.456C282.216 204.56 282.3 204.643 282.404 204.686L284.534 205.56C284.883 205.704 284.883 206.198 284.534 206.341L282.404 207.215C282.3 207.258 282.217 207.341 282.174 207.446L281.3 209.576C281.156 209.925 280.662 209.925 280.518 209.576L279.644 207.446C279.601 207.341 279.518 207.259 279.413 207.215L277.283 206.341C276.934 206.198 276.934 205.704 277.283 205.56L279.413 204.686C279.518 204.644 279.6 204.56 279.644 204.456L280.518 202.326C280.662 201.976 281.156 201.976 281.3 202.326Z" fill="#FFCE5E"/>
<path d="M47.788 113.113L48.662 115.243C48.7046 115.348 48.788 115.431 48.8926 115.474L51.0225 116.348C51.3718 116.491 51.3718 116.986 51.0225 117.129L48.8926 118.003C48.788 118.046 48.7053 118.129 48.662 118.234L47.788 120.364C47.6447 120.713 47.1501 120.713 47.0067 120.364L46.1321 118.234C46.0895 118.129 46.0061 118.046 45.9021 118.003L43.7722 117.129C43.4229 116.986 43.4229 116.491 43.7722 116.348L45.9021 115.474C46.0068 115.431 46.0895 115.348 46.1321 115.243L47.0067 113.113C47.1501 112.764 47.6447 112.764 47.788 113.113Z" fill="#FFCE5E"/>
<path d="M137.685 69.9387L138.559 72.0686C138.602 72.1733 138.685 72.256 138.79 72.2993L140.92 73.1732C141.269 73.3166 141.269 73.8112 140.92 73.9545L138.79 74.8285C138.685 74.8712 138.602 74.9545 138.559 75.0591L137.685 77.189C137.542 77.5383 137.047 77.5383 136.904 77.189L136.029 75.0591C135.987 74.9545 135.903 74.8718 135.799 74.8285L133.669 73.9545C133.319 73.8112 133.319 73.3166 133.669 73.1732L135.799 72.2993C135.903 72.2566 135.986 72.1733 136.029 72.0686L136.904 69.9387C137.047 69.5894 137.542 69.5894 137.685 69.9387Z" fill="#FFCE5E"/>
<path d="M229.629 77.3502L230.065 78.4128C230.086 78.4648 230.128 78.5062 230.18 78.5275L231.242 78.9635C231.416 79.0348 231.416 79.2821 231.242 79.3534L230.18 79.7894C230.128 79.8108 230.086 79.8521 230.065 79.9041L229.629 80.9667C229.558 81.1407 229.31 81.1407 229.239 80.9667L228.803 79.9041C228.782 79.8521 228.74 79.8108 228.688 79.7894L227.626 79.3534C227.452 79.2821 227.452 79.0348 227.626 78.9635L228.688 78.5275C228.74 78.5062 228.782 78.4648 228.803 78.4128L229.239 77.3502C229.311 77.1762 229.558 77.1762 229.629 77.3502Z" fill="#FFCE5E"/>
<path d="M78.0264 24.9332L78.4624 25.9958C78.4837 26.0478 78.5251 26.0892 78.5771 26.1105L79.6397 26.5465C79.8137 26.6178 79.8137 26.8651 79.6397 26.9365L78.5771 27.3724C78.5251 27.3938 78.4837 27.4351 78.4624 27.4871L78.0264 28.5497C77.9551 28.7237 77.7078 28.7237 77.6364 28.5497L77.2005 27.4871C77.1791 27.4351 77.1378 27.3938 77.0858 27.3724L76.0232 26.9365C75.8492 26.8651 75.8492 26.6178 76.0232 26.5465L77.0858 26.1105C77.1378 26.0892 77.1791 26.0478 77.2005 25.9958L77.6364 24.9332C77.7084 24.7592 77.9551 24.7592 78.0264 24.9332Z" fill="#FFCE5E"/>
<path d="M51.5206 106.477L51.9565 107.54C51.9779 107.592 52.0192 107.633 52.0712 107.654L53.1338 108.09C53.3078 108.162 53.3078 108.409 53.1338 108.48L52.0712 108.916C52.0192 108.937 51.9779 108.979 51.9565 109.031L51.5206 110.093C51.4492 110.267 51.2019 110.267 51.1306 110.093L50.6946 109.031C50.6733 108.979 50.6319 108.937 50.5799 108.916L49.5173 108.48C49.3433 108.409 49.3433 108.162 49.5173 108.09L50.5799 107.654C50.6319 107.633 50.6733 107.592 50.6946 107.54L51.1306 106.477C51.2026 106.303 51.4492 106.303 51.5206 106.477Z" fill="#FFCE5E"/>
<path d="M258.85 170.441L259.286 171.503C259.307 171.555 259.349 171.597 259.401 171.618L260.463 172.054C260.637 172.125 260.637 172.373 260.463 172.444L259.401 172.88C259.349 172.901 259.307 172.943 259.286 172.995L258.85 174.057C258.779 174.232 258.532 174.232 258.46 174.057L258.024 172.995C258.003 172.943 257.962 172.901 257.91 172.88L256.847 172.444C256.673 172.373 256.673 172.125 256.847 172.054L257.91 171.618C257.962 171.597 258.003 171.555 258.024 171.503L258.46 170.441C258.532 170.267 258.779 170.267 258.85 170.441Z" fill="#FFCE5E"/>
<path d="M22.7073 193.856L23.1433 194.919C23.1646 194.971 23.206 195.012 23.258 195.033L24.3206 195.469C24.4946 195.541 24.4946 195.788 24.3206 195.859L23.258 196.295C23.206 196.317 23.1646 196.358 23.1433 196.41L22.7073 197.473C22.636 197.647 22.3887 197.647 22.3173 197.473L21.8814 196.41C21.86 196.358 21.8187 196.317 21.7667 196.295L20.7041 195.859C20.5301 195.788 20.5301 195.541 20.7041 195.469L21.7667 195.033C21.8187 195.012 21.86 194.971 21.8814 194.919L22.3173 193.856C22.3887 193.682 22.636 193.682 22.7073 193.856Z" fill="#FFCE5E"/>
<path d="M289.739 221.793H15.9884C32.9455 273.245 67.551 282.993 157.882 282.993C240.059 282.993 276.257 256.406 289.739 221.793Z" fill="#EF5A6F"/>
<path d="M174.805 274.671C195.19 274.671 211.715 270.09 211.715 264.44C211.715 258.789 195.19 254.208 174.805 254.208C154.419 254.208 137.894 258.789 137.894 264.44C137.894 270.09 154.419 274.671 174.805 274.671Z" fill="#424654"/>
<path d="M236.709 205.967C239.527 197.299 244.866 188.372 253.658 185.969C256.729 185.13 260.265 185.259 262.787 187.202C266.078 189.739 266.662 194.676 265.28 198.596C263.898 202.516 260.975 205.664 258.142 208.706C254.069 213.082 250.026 217.492 246.254 222.13C242.452 226.806 238.829 231.935 237.758 237.865C237.591 238.785 237.481 239.74 237.032 240.561C236.583 241.381 235.684 242.043 234.764 241.883C232.12 241.424 233.018 227.494 233.145 225.151C233.5 218.638 234.693 212.171 236.709 205.967Z" fill="#83BAA8"/>
<path d="M259.94 187.086C256.524 189.287 253.549 192.32 251.043 195.499C248.285 199 246.219 202.917 244.201 206.873C240.521 214.086 236.867 221.53 235.116 229.486C234.639 231.649 234.324 233.851 234.208 236.065C234.09 238.304 234.117 240.615 234.762 242.779C234.826 242.994 235.183 243.017 235.188 242.756C235.223 240.823 235.107 238.89 235.192 236.957C235.276 235.024 235.52 233.099 235.888 231.2C236.643 227.302 237.891 223.52 239.389 219.847C240.917 216.098 242.736 212.48 244.56 208.869C246.486 205.058 248.384 201.201 250.889 197.729C252.225 195.875 253.727 194.142 255.356 192.54C257.002 190.923 258.802 189.516 260.607 188.086C261.135 187.668 260.524 186.711 259.94 187.086Z" fill="#4D867E"/>
<path d="M251.445 219.499C257.616 215.13 265.591 211.841 272.63 214.6C275.088 215.564 277.376 217.403 278.09 219.946C279.021 223.265 276.963 226.837 274.101 228.759C271.238 230.681 267.734 231.326 264.343 231.945C259.465 232.836 254.59 233.765 249.783 234.98C244.936 236.205 239.985 237.821 236.333 241.234C235.766 241.763 235.219 242.344 234.514 242.666C233.809 242.989 232.882 242.984 232.35 242.421C230.819 240.806 238.321 231.986 239.567 230.491C243.029 226.335 247.029 222.625 251.445 219.499Z" fill="#4D867E"/>
<path d="M276.253 218.458C272.89 218.228 269.409 218.77 266.166 219.642C262.597 220.603 259.281 222.184 255.978 223.815C249.955 226.788 243.834 229.927 238.727 234.35C237.337 235.553 236.035 236.861 234.861 238.276C233.674 239.707 232.546 241.257 231.902 243.016C231.838 243.191 232.064 243.383 232.197 243.212C233.178 241.944 234.06 240.601 235.074 239.357C236.088 238.113 237.204 236.955 238.39 235.874C240.824 233.656 243.53 231.76 246.346 230.059C249.221 228.323 252.224 226.819 255.227 225.321C258.396 223.741 261.571 222.118 264.958 221.05C266.766 220.48 268.624 220.072 270.501 219.814C272.397 219.554 274.291 219.51 276.201 219.454C276.759 219.437 276.828 218.497 276.253 218.458Z" fill="#83BAA8"/>
<path d="M64.0425 195.073C59.3228 186.158 51.8052 177.44 41.7624 176.492C38.2546 176.161 34.4234 176.974 32.0436 179.572C28.9371 182.965 29.239 188.458 31.4916 192.469C33.7435 196.48 37.5293 199.356 41.1951 202.134C46.4681 206.131 51.7139 210.171 56.7083 214.51C61.7427 218.886 66.6671 223.789 68.9629 230.051C69.3189 231.023 69.6216 232.043 70.2669 232.852C70.9122 233.661 72.0181 234.211 72.9914 233.862C75.7859 232.86 72.1588 217.842 71.5748 215.312C69.9522 208.278 67.4204 201.453 64.0425 195.073Z" fill="#83BAA8"/>
<path d="M35.126 178.905C39.2692 180.655 43.089 183.396 46.4255 186.385C50.0986 189.678 53.0958 193.555 56.0483 197.485C61.432 204.65 66.8317 212.071 70.2529 220.412C71.1835 222.68 71.9468 225.021 72.4934 227.413C73.0467 229.831 73.4573 232.356 73.1647 234.838C73.1354 235.084 72.7514 235.177 72.6961 234.893C72.2901 232.793 72.0488 230.664 71.5895 228.572C71.1301 226.481 70.4982 224.429 69.7362 222.429C68.1716 218.322 66.0911 214.436 63.7605 210.717C61.3813 206.92 58.7101 203.32 56.0343 199.73C53.2111 195.942 50.4072 192.097 47.0168 188.788C45.2069 187.021 43.2403 185.417 41.1591 183.981C39.0578 182.53 36.828 181.338 34.5881 180.122C33.9341 179.766 34.4174 178.606 35.126 178.905Z" fill="#4D867E"/>
<path d="M52.1444 209.403C44.8008 204.358 35.348 200.612 27.0991 203.981C24.2179 205.158 21.552 207.362 20.7527 210.37C19.7101 214.297 22.1953 218.473 25.5998 220.69C29.0043 222.907 33.1448 223.609 37.1519 224.283C42.9149 225.253 48.6746 226.267 54.3603 227.619C60.092 228.983 65.953 230.804 70.3141 234.766C70.9907 235.381 71.6447 236.056 72.4813 236.425C73.3173 236.793 74.4086 236.771 75.0272 236.1C76.8038 234.172 67.8176 223.902 66.325 222.161C62.1752 217.32 57.4001 213.015 52.1444 209.403Z" fill="#4D867E"/>
<path d="M22.8927 208.586C26.8519 208.259 30.9636 208.841 34.7988 209.816C39.0219 210.889 42.955 212.697 46.8741 214.564C54.0211 217.969 61.2847 221.567 67.3777 226.694C69.035 228.089 70.5902 229.609 71.9975 231.257C73.4207 232.923 74.776 234.731 75.5626 236.794C75.6406 236.999 75.378 237.229 75.2186 237.029C74.0414 235.551 72.9808 233.983 71.7648 232.535C70.5489 231.086 69.215 229.739 67.7997 228.485C64.8939 225.911 61.6747 223.721 58.3282 221.764C54.9117 219.765 51.3479 218.042 47.7834 216.327C44.023 214.518 40.2545 212.656 36.246 211.454C34.1061 210.812 31.9103 210.362 29.6937 210.089C27.4552 209.814 25.222 209.794 22.9714 209.759C22.3128 209.748 22.2161 208.642 22.8927 208.586Z" fill="#83BAA8"/>
<path d="M161.045 269.84C205.048 269.84 240.719 262.524 240.719 253.5C240.719 244.475 205.048 237.16 161.045 237.16C117.043 237.16 81.3716 244.475 81.3716 253.5C81.3716 262.524 117.043 269.84 161.045 269.84Z" fill="#424654"/>
<path d="M128.475 256.685C172.131 256.685 207.522 249.675 207.522 241.028C207.522 232.381 172.131 225.371 128.475 225.371C84.818 225.371 49.4274 232.381 49.4274 241.028C49.4274 249.675 84.818 256.685 128.475 256.685Z" fill="#424654"/>
<path d="M169.342 88.2883L179.961 95.3186L77.3064 99.2937L67.5503 91.0855L169.342 88.2883Z" fill="white"/>
<path d="M86.7493 94.2521C91.9617 94.0348 97.1728 93.8068 102.385 93.5902C103.834 93.5302 105.282 93.4695 106.73 93.4095C108.16 93.3502 109.615 93.3908 110.995 92.9735C111.2 92.9115 111.225 92.5809 110.995 92.5329C109.763 92.2742 108.539 92.3782 107.291 92.4336C106.03 92.4896 104.768 92.5456 103.506 92.6016C100.866 92.7189 98.2254 92.8342 95.5848 92.9475C90.3598 93.1722 85.1321 93.3728 79.909 93.6522C78.4364 93.7308 76.9632 93.7975 75.4912 93.8902C74.1246 93.9761 72.6721 93.9682 71.3281 94.2648L71.8314 94.6881C72.8554 94.7628 73.904 94.6921 74.9213 94.6748C76.2039 94.6528 77.4865 94.6015 78.7691 94.5601C81.4296 94.4728 84.0894 94.3628 86.7493 94.2521Z" fill="#D5F2F9"/>
<path d="M132.916 94.2673C130.142 94.012 127.29 94.216 124.505 94.244C121.702 94.272 118.898 94.3053 116.095 94.354C110.441 94.452 104.787 94.5673 99.1353 94.7533C97.5681 94.8046 95.9995 94.8546 94.4329 94.9266C92.9057 94.9966 91.3457 94.9866 89.8405 95.276C89.6892 95.3053 89.7458 95.5066 89.8738 95.5226C91.2871 95.6959 92.7283 95.6006 94.1483 95.5773C95.5255 95.5539 96.9028 95.5179 98.2807 95.4873C101.083 95.4246 103.886 95.346 106.689 95.284C112.247 95.1606 117.806 95.0613 123.365 94.978C124.933 94.9546 126.501 94.9333 128.069 94.9146C129.687 94.8953 131.305 94.9493 132.916 94.7793C133.242 94.7433 133.246 94.298 132.916 94.2673Z" fill="#D5F2F9"/>
<path d="M117.773 92.773C119.959 92.9356 122.149 92.8503 124.339 92.799C126.48 92.749 128.621 92.695 130.762 92.6423C135.091 92.5356 139.421 92.435 143.751 92.3383C152.273 92.1483 160.789 91.8963 169.299 91.387C170.748 91.3004 172.206 91.227 173.665 91.1517L172.15 90.1484C171.669 90.1844 171.188 90.2218 170.708 90.2531C166.479 90.5297 162.247 90.7471 158.014 90.9311C149.459 91.303 140.89 91.479 132.332 91.745C129.953 91.819 127.575 91.891 125.195 91.9677C122.719 92.0477 120.232 92.0677 117.773 92.3876C117.532 92.419 117.52 92.7543 117.773 92.773Z" fill="#D5F2F9"/>
<path d="M175.065 92.0776C174.794 92.113 174.523 92.1516 174.252 92.1803C172.849 92.3303 171.445 92.471 170.038 92.5849C167.133 92.8196 164.221 92.9963 161.31 93.1322C158.397 93.2682 155.482 93.3536 152.566 93.3762C149.667 93.3982 146.71 93.1442 143.823 93.3989C143.592 93.4196 143.496 93.7935 143.764 93.8389C146.634 94.3248 149.662 94.2009 152.566 94.2202C155.481 94.2395 158.397 94.2022 161.31 94.0955C164.224 93.9882 167.133 93.8029 170.038 93.5556C171.537 93.4282 173.035 93.2989 174.533 93.1482C175.158 93.0856 175.793 93.0369 176.428 92.9803L175.065 92.0776Z" fill="#D5F2F9"/>
<path d="M169.831 87.2852C169.831 87.2852 67.8624 89.8004 63.6779 90.7963C59.4935 91.7922 57.9576 100.804 57.9056 112.998C57.8536 125.191 61.4227 228.413 62.6353 234.821C63.8479 241.228 79.9164 247.756 87.2047 247.799C94.497 247.843 183.252 247.289 186.868 246.833C190.483 246.376 181.507 95.668 180.992 94.7928C180.478 93.9175 89.2319 97.9219 85.3548 97.8173C81.4777 97.7126 68.5417 92.0369 71.3035 92.3882C74.0654 92.7395 168.404 88.8411 170.135 88.8877C171.865 88.9337 172.602 87.2912 169.831 87.2852Z" fill="#697BAE"/>
<path d="M84.4162 104.091C84.3895 102.474 85.6474 101.125 87.2633 101.038L181.13 96.0199C181.098 95.6539 181.071 95.3672 181.048 95.1612C181.048 95.1606 181.048 95.1599 181.048 95.1593C181.048 95.1506 181.046 95.1413 181.046 95.1333C181.042 95.1006 181.038 95.0726 181.035 95.0446C181.034 95.0339 181.032 95.0246 181.031 95.0146C181.03 95.0019 181.028 94.9879 181.026 94.9766C181.024 94.9559 181.021 94.9379 181.018 94.9213C181.017 94.9133 181.016 94.9086 181.015 94.9013C181.013 94.8893 181.011 94.8759 181.009 94.8653C181.007 94.8553 181.005 94.8433 181.004 94.8353C180.999 94.8139 180.995 94.7979 180.992 94.7919C180.986 94.7833 180.968 94.7746 180.944 94.7666C180.935 94.7633 180.925 94.7606 180.913 94.7573C180.903 94.7546 180.888 94.7519 180.876 94.7499C177.257 94.0573 89.1626 97.9191 85.3541 97.8164C81.905 97.7231 71.2955 93.224 70.9382 92.4787C70.8915 92.4421 70.8709 92.4134 70.8849 92.3941C70.9102 92.3587 71.0435 92.3541 71.3028 92.3874C71.3308 92.3907 71.3722 92.3941 71.4195 92.3967C71.4315 92.3974 71.4448 92.3981 71.4582 92.3987C71.5062 92.4007 71.5608 92.4034 71.6248 92.4047C71.6302 92.4047 71.6342 92.4047 71.6395 92.4054C71.7102 92.4074 71.7928 92.4081 71.8815 92.4087C71.9022 92.4087 71.9235 92.4094 71.9455 92.4094C72.0321 92.4101 72.1248 92.4101 72.2268 92.4101C72.2355 92.4101 72.2428 92.4101 72.2515 92.4101C72.3635 92.4101 72.4868 92.4087 72.6168 92.4081C72.6454 92.4081 72.6754 92.4074 72.7041 92.4074C72.8248 92.4061 72.9508 92.4047 73.0854 92.4027C73.1001 92.4027 73.1141 92.4027 73.1288 92.4021C73.2847 92.4001 73.4494 92.3974 73.6234 92.3947C73.6467 92.3941 73.6714 92.3941 73.6954 92.3934C73.8574 92.3907 74.026 92.3874 74.2027 92.3841C74.2194 92.3834 74.236 92.3834 74.2534 92.3834C74.4487 92.3794 74.6533 92.3754 74.866 92.3701C74.8873 92.3694 74.91 92.3694 74.932 92.3687C75.1266 92.3641 75.3286 92.3594 75.5373 92.3547C75.5686 92.3541 75.5993 92.3534 75.6313 92.3527C75.8613 92.3474 76.0986 92.3414 76.3446 92.3347C76.3592 92.3341 76.3753 92.3341 76.3899 92.3334C76.6259 92.3274 76.8692 92.3207 77.1192 92.3141C77.1505 92.3134 77.1819 92.3121 77.2132 92.3114C77.4759 92.3041 77.7452 92.2967 78.0232 92.2887C78.0498 92.2881 78.0772 92.2874 78.1038 92.2867C78.3551 92.2794 78.6125 92.2721 78.8751 92.2647C78.9331 92.2627 78.9904 92.2614 79.0491 92.2594C79.3318 92.2514 79.6184 92.2427 79.9137 92.2334C79.9364 92.2327 79.9604 92.2321 79.9831 92.2314C80.2924 92.2221 80.6084 92.2127 80.931 92.2027C80.941 92.2027 80.951 92.2021 80.961 92.2021C81.631 92.1814 82.3303 92.1594 83.0556 92.1361C83.1016 92.1347 83.1476 92.1334 83.1936 92.1314C83.5055 92.1214 83.8235 92.1107 84.1448 92.1007C84.1955 92.0987 84.2448 92.0974 84.2955 92.0961C84.6455 92.0847 85.0021 92.0727 85.3628 92.0607C85.4474 92.0581 85.5328 92.0548 85.6181 92.0521C85.9087 92.0421 86.2027 92.0327 86.4994 92.0227C86.576 92.0201 86.652 92.0174 86.7294 92.0148C87.0927 92.0028 87.4613 91.9901 87.8333 91.9774C87.9346 91.9741 88.0366 91.9708 88.1386 91.9668C88.3946 91.9581 88.6533 91.9494 88.9133 91.9401C89.1066 91.9334 89.2992 91.9267 89.4946 91.9201C89.7999 91.9094 90.1072 91.8988 90.4178 91.8881C90.6165 91.8814 90.8165 91.8741 91.0171 91.8674C91.1905 91.8614 91.3651 91.8554 91.5398 91.8494C91.7238 91.8428 91.9071 91.8368 92.0924 91.8301C92.2831 91.8234 92.4771 91.8168 92.6697 91.8094C93.1297 91.7934 93.593 91.7768 94.0616 91.7601C94.095 91.7588 94.1283 91.7581 94.1616 91.7568C95.0349 91.7254 95.9242 91.6941 96.8268 91.6614C96.9895 91.6554 97.1522 91.6494 97.3155 91.6441C97.5468 91.6354 97.7788 91.6274 98.0121 91.6188C98.3888 91.6048 98.7654 91.5914 99.146 91.5774C99.3434 91.5701 99.5427 91.5628 99.7413 91.5554C99.9053 91.5494 100.07 91.5434 100.235 91.5374C100.969 91.5108 101.71 91.4834 102.457 91.4561C104.869 91.3668 107.345 91.2748 109.863 91.1801C110.209 91.1675 110.556 91.1541 110.903 91.1408C110.993 91.1375 111.082 91.1341 111.172 91.1308C111.834 91.1061 112.498 91.0808 113.164 91.0555C114.298 91.0128 115.438 90.9695 116.58 90.9261C116.999 90.9101 117.419 90.8941 117.838 90.8781C118.926 90.8368 120.015 90.7948 121.104 90.7535C121.858 90.7248 122.613 90.6955 123.366 90.6668C123.743 90.6522 124.119 90.6375 124.496 90.6235C147.451 89.7409 169.308 88.8669 170.132 88.8889C170.998 88.9122 171.615 88.5129 171.669 88.1076C171.702 87.8596 171.521 87.6096 171.061 87.4523C171.036 87.4437 171.008 87.4363 170.982 87.4283C170.916 87.4083 170.844 87.3903 170.766 87.3743C170.735 87.3677 170.704 87.361 170.67 87.355C170.561 87.3357 170.444 87.319 170.314 87.3083C170.312 87.3083 170.311 87.3077 170.309 87.3077C170.162 87.2957 170.003 87.2883 169.83 87.2883C169.83 87.2883 167.094 87.3557 162.504 87.473C162.442 87.4743 162.378 87.4763 162.316 87.4777C161.994 87.4857 161.665 87.4943 161.325 87.503C161.297 87.5037 161.271 87.5043 161.243 87.505C158.615 87.5723 155.478 87.6536 151.967 87.7456C151.905 87.7476 151.841 87.749 151.778 87.751C151.309 87.763 150.833 87.7756 150.351 87.7883C150.331 87.789 150.311 87.789 150.291 87.7896C148.761 87.8303 147.167 87.8723 145.52 87.9163C145.425 87.919 145.33 87.9216 145.235 87.9236C144.764 87.9363 144.29 87.949 143.812 87.9616C143.672 87.9656 143.53 87.969 143.389 87.973C140.006 88.0636 136.429 88.161 132.737 88.2629C132.607 88.2663 132.476 88.2703 132.346 88.2736C131.951 88.2843 131.555 88.2956 131.158 88.3063C129.696 88.3469 128.221 88.3883 126.733 88.4296C126.583 88.4336 126.433 88.4383 126.283 88.4423C124.683 88.4876 123.072 88.5329 121.454 88.5796C121.41 88.5809 121.366 88.5823 121.323 88.5836C119.64 88.6316 117.952 88.6809 116.264 88.7296C116.236 88.7303 116.209 88.7309 116.181 88.7323C114.524 88.7803 112.868 88.8296 111.219 88.8783C110.745 88.8923 110.273 88.9062 109.801 88.9209C109.397 88.9329 108.994 88.9449 108.592 88.9576C107.787 88.9816 106.984 89.0062 106.185 89.0302C105.676 89.0456 105.17 89.0616 104.665 89.0769C104.087 89.0949 103.511 89.1122 102.937 89.1302C102.737 89.1362 102.537 89.1422 102.337 89.1489C100.857 89.1949 99.392 89.2409 97.9494 89.2876C96.7995 89.3242 95.6629 89.3609 94.5423 89.3976C94.293 89.4056 94.0463 89.4136 93.799 89.4222C93.615 89.4282 93.4317 89.4342 93.249 89.4402C91.8444 89.4869 90.4652 89.5329 89.1206 89.5789C88.402 89.6035 87.6926 89.6282 86.9934 89.6522C86.3174 89.6762 85.6514 89.6995 84.9955 89.7229C84.8355 89.7289 84.6781 89.7342 84.5195 89.7402C84.2382 89.7502 83.9588 89.7602 83.6815 89.7702C83.2189 89.7869 82.7616 89.8035 82.3103 89.8202C81.9776 89.8322 81.6476 89.8449 81.3217 89.8569C81.2323 89.8602 81.1417 89.8635 81.053 89.8669C80.455 89.8895 79.8677 89.9115 79.2924 89.9342C78.6171 89.9602 77.9578 89.9862 77.3159 90.0122C76.7046 90.0369 76.1106 90.0609 75.5313 90.0849C75.4746 90.0869 75.4186 90.0895 75.3626 90.0915C74.808 90.1148 74.2694 90.1375 73.7467 90.1602C73.7127 90.1615 73.6787 90.1628 73.6447 90.1648C73.0908 90.1888 72.5541 90.2128 72.0395 90.2368C71.5728 90.2582 71.1222 90.2795 70.6889 90.3008C70.3482 90.3175 70.0223 90.3335 69.7029 90.3495C69.6443 90.3528 69.5843 90.3555 69.5263 90.3588C69.2323 90.3742 68.9496 90.3888 68.675 90.4035C68.6103 90.4068 68.5457 90.4102 68.4817 90.4142C68.2117 90.4288 67.9497 90.4435 67.6997 90.4582C67.6497 90.4608 67.6024 90.4642 67.5537 90.4668C67.3017 90.4815 67.0584 90.4962 66.8291 90.5108C66.8118 90.5122 66.7944 90.5128 66.7771 90.5142C66.4798 90.5328 66.2005 90.5515 65.9418 90.5695C65.8025 90.5795 65.6705 90.5888 65.5425 90.5988C65.4865 90.6028 65.4345 90.6075 65.3812 90.6115C65.3112 90.6168 65.2405 90.6222 65.1745 90.6275C65.1205 90.6322 65.0705 90.6362 65.0192 90.6402C64.9572 90.6455 64.8959 90.6508 64.8379 90.6555C64.7885 90.6602 64.7412 90.6642 64.6939 90.6688C64.6432 90.6735 64.5939 90.6782 64.5465 90.6828C64.4992 90.6875 64.4532 90.6922 64.4092 90.6968C64.3652 90.7015 64.3239 90.7062 64.2832 90.7108C64.2446 90.7148 64.2066 90.7195 64.1706 90.7235C64.1299 90.7281 64.0932 90.7328 64.0566 90.7375C64.0259 90.7415 63.9939 90.7455 63.9659 90.7495C63.9299 90.7548 63.8986 90.7595 63.8672 90.7648C63.8452 90.7682 63.8219 90.7715 63.8019 90.7755C63.7619 90.7821 63.7273 90.7895 63.6966 90.7961C63.6906 90.7975 63.6826 90.7988 63.6773 90.8001C63.5539 90.8295 63.4333 90.8675 63.3139 90.9101C63.2759 90.9241 63.2393 90.9415 63.2019 90.9568C63.122 90.9895 63.042 91.0228 62.9646 91.0615C62.9213 91.0828 62.8786 91.1075 62.836 91.1308C62.766 91.1695 62.696 91.2095 62.6273 91.2535C62.5833 91.2815 62.54 91.3115 62.4973 91.3414C62.4313 91.3874 62.366 91.4361 62.3013 91.4874C62.2593 91.5201 62.218 91.5541 62.1767 91.5894C62.112 91.6448 62.0487 91.7034 61.9853 91.7634C61.9467 91.8001 61.908 91.8361 61.8707 91.8741C61.8027 91.9434 61.7367 92.0168 61.6707 92.0921C61.64 92.1267 61.6087 92.1594 61.5787 92.1954C61.3827 92.4301 61.1954 92.6894 61.0174 92.9747C60.8954 93.1707 60.7787 93.3827 60.6641 93.602C60.6354 93.6567 60.6067 93.7127 60.5788 93.7693C60.3548 94.2193 60.1461 94.7139 59.9535 95.2519C59.9295 95.3192 59.9055 95.3872 59.8815 95.4566C59.6921 96.0045 59.5188 96.5952 59.3595 97.2251C59.3395 97.3051 59.3195 97.3851 59.2995 97.4665C59.1435 98.1071 59.0022 98.7857 58.8748 99.5017C58.8588 99.591 58.8435 99.6803 58.8275 99.771C58.7655 100.133 58.7055 100.501 58.6502 100.88C58.6502 100.881 58.6502 100.882 58.6502 100.882C58.5949 101.263 58.5442 101.655 58.4949 102.053C58.4829 102.152 58.4709 102.252 58.4589 102.352C58.3649 103.155 58.2829 103.99 58.2142 104.856C58.2055 104.965 58.1969 105.074 58.1889 105.184C58.1562 105.619 58.1249 106.059 58.0975 106.509C58.0975 106.51 58.0975 106.51 58.0975 106.511C58.0702 106.962 58.0476 107.423 58.0262 107.889C58.0209 108.005 58.0156 108.122 58.0109 108.24C57.9909 108.707 57.9729 109.179 57.9589 109.659C57.9589 109.66 57.9589 109.66 57.9589 109.66C57.9449 110.141 57.9342 110.631 57.9256 111.124C57.9236 111.249 57.9216 111.374 57.9196 111.499C57.9122 111.994 57.9062 112.494 57.9042 113.001C57.9036 113.096 57.9036 113.197 57.9036 113.304C57.9042 114.686 57.9416 116.991 58.0096 120.023C58.0149 120.257 58.0202 120.494 58.0256 120.736C58.0482 121.703 58.0729 122.738 58.1009 123.834C58.1289 124.93 58.1595 126.088 58.1922 127.302C58.2089 127.908 58.2255 128.529 58.2435 129.163C58.2969 131.066 58.3555 133.088 58.4189 135.21C58.4822 137.332 58.5502 139.554 58.6229 141.856C58.6829 143.775 58.7462 145.75 58.8122 147.77C58.8382 148.578 58.8648 149.393 58.8922 150.214C58.9328 151.447 58.9742 152.694 59.0162 153.953C59.0442 154.792 59.0728 155.637 59.1015 156.486C59.5768 170.501 60.1414 185.786 60.6914 199.123C60.7414 200.336 60.7914 201.532 60.8414 202.71C60.8914 203.887 60.9407 205.047 60.9901 206.185C61.0887 208.462 61.1861 210.655 61.282 212.745C61.314 213.442 61.3454 214.127 61.3774 214.8C61.4087 215.474 61.44 216.134 61.4714 216.782C61.4867 217.106 61.502 217.427 61.518 217.744C61.9653 226.95 62.3607 233.372 62.636 234.823C62.9773 236.625 64.4932 238.437 66.6584 240.111C67.3804 240.669 68.1744 241.212 69.021 241.734C74.6653 245.215 82.6496 247.774 87.2047 247.802C86.3401 220.532 84.7128 122.256 84.4162 104.091Z" fill="#495E84"/>
<path d="M163.543 131.571L107.424 133.594C104.887 133.685 102.737 131.686 102.646 129.149L102.459 123.975C102.368 121.438 104.368 119.288 106.904 119.197L163.024 117.174C165.561 117.082 167.71 119.082 167.802 121.619L167.988 126.793C168.08 129.33 166.079 131.48 163.543 131.571Z" fill="#495E84"/>
<path d="M153.362 148.649L117.372 149.947C115.191 150.025 113.341 148.305 113.263 146.124C113.184 143.942 114.905 142.093 117.086 142.014L153.076 140.717C155.257 140.639 157.106 142.359 157.185 144.54C157.264 146.722 155.543 148.571 153.362 148.649Z" fill="#495E84"/>
<path d="M82.5568 137.36C82.0329 136.67 80.9769 136.644 80.1683 136.586C79.2637 136.521 78.3437 136.603 77.4364 136.584C75.6005 136.545 73.7733 136.356 71.9707 136.005C70.1855 135.657 68.4209 135.163 66.7043 134.564C64.9751 133.961 63.3072 132.921 61.46 132.791C61.0493 132.763 60.744 133.293 60.9766 133.634C62.0673 135.232 64.0125 135.948 65.7397 136.667C67.543 137.418 69.4029 137.984 71.3141 138.386C73.204 138.784 75.1346 139.032 77.0638 139.12C78.0537 139.166 79.057 139.197 80.0436 139.088C80.8096 139.004 82.1949 138.768 82.5562 137.983C82.6422 137.796 82.6948 137.542 82.5568 137.36Z" fill="#697BAE"/>
<path d="M84.4147 221.073C83.5008 220.832 82.5222 220.788 81.5849 220.669C80.6989 220.557 79.817 220.412 78.9397 220.243C77.1631 219.902 75.4072 219.452 73.684 218.9C71.9787 218.354 70.2921 217.759 68.6562 217.029C67.8089 216.651 66.9763 216.242 66.1384 215.844C65.3551 215.473 64.5844 215.03 63.6971 215.209C63.3972 215.27 63.2178 215.631 63.2985 215.912C63.5565 216.807 64.4144 217.298 65.1617 217.766C65.9457 218.256 66.7683 218.681 67.5976 219.09C69.3095 219.934 71.0801 220.7 72.8907 221.306C74.6459 221.893 76.4385 222.372 78.2524 222.739C79.159 222.923 80.0716 223.077 80.9876 223.206C81.9982 223.348 83.0781 223.538 84.0974 223.427C85.3593 223.289 85.8173 221.442 84.4147 221.073Z" fill="#697BAE"/>
<path d="M80.7936 120.559C80.3916 119.126 79.6663 117.882 78.6177 116.826C78.0471 116.384 77.4758 115.944 76.9051 115.502C75.5852 114.737 74.162 114.352 72.634 114.347C71.4688 114.303 70.3821 114.546 69.3735 115.076C68.3243 115.417 67.417 116 66.6503 116.825C65.8251 117.592 65.2418 118.5 64.9004 119.548C64.3705 120.557 64.1278 121.643 64.1718 122.809C64.2725 123.559 64.3731 124.308 64.4738 125.058C64.8758 126.491 65.6011 127.736 66.6497 128.792C67.2203 129.233 67.7916 129.674 68.3623 130.115C69.6822 130.88 71.1054 131.266 72.6334 131.27C73.7986 131.314 74.8852 131.072 75.8932 130.542C76.9425 130.2 77.8498 129.617 78.6164 128.792C79.4417 128.025 80.025 127.118 80.3663 126.068C80.8963 125.06 81.1389 123.973 81.0949 122.808C80.9949 122.059 80.8943 121.309 80.7936 120.559Z" fill="#697BAE"/>
<path d="M81.5149 142.114C78.1124 143.133 74.5026 143.059 71.0582 142.273C69.3989 141.894 67.7757 141.368 66.1917 140.748C65.4238 140.446 64.6618 140.128 63.8972 139.818C63.0846 139.49 62.4026 139.112 61.506 139.288C61.1147 139.364 61.0233 139.818 61.1653 140.124C61.5447 140.94 62.3553 141.283 63.1086 141.688C63.9225 142.126 64.7565 142.505 65.6084 142.864C67.3137 143.582 69.0602 144.201 70.8602 144.637C74.5886 145.539 78.4938 145.666 82.2082 144.627C83.8221 144.176 83.1268 141.63 81.5149 142.114Z" fill="#697BAE"/>
<path d="M216.582 80.1694L228.587 88.117L112.544 92.6101L101.515 83.3313L216.582 80.1694Z" fill="white"/>
<path d="M123.219 86.9111C129.11 86.6651 135.002 86.4078 140.894 86.1624C142.531 86.0944 144.168 86.0264 145.806 85.9578C147.422 85.8904 149.066 85.9364 150.627 85.4651C150.859 85.3951 150.887 85.0218 150.627 84.9672C149.234 84.6745 147.851 84.7918 146.439 84.8545C145.014 84.9178 143.588 84.9812 142.162 85.0445C139.177 85.1772 136.192 85.3072 133.207 85.4358C127.3 85.6898 121.391 85.9164 115.487 86.2324C113.823 86.3218 112.157 86.3971 110.493 86.5011C108.949 86.5984 107.307 86.5891 105.787 86.9244L106.356 87.403C107.514 87.487 108.699 87.4077 109.849 87.3877C111.299 87.3624 112.749 87.305 114.199 87.2577C117.206 87.1604 120.212 87.0364 123.219 86.9111Z" fill="#D5F2F9"/>
<path d="M175.405 86.9284C172.27 86.6404 169.046 86.8704 165.898 86.9017C162.729 86.9331 159.56 86.9711 156.391 87.0264C150 87.1371 143.608 87.2677 137.219 87.4784C135.447 87.537 133.675 87.593 131.904 87.6737C130.177 87.7524 128.414 87.7417 126.712 88.069C126.541 88.1017 126.605 88.3297 126.75 88.3477C128.348 88.543 129.977 88.4363 131.582 88.409C133.139 88.383 134.695 88.3417 136.253 88.307C139.421 88.2363 142.589 88.147 145.757 88.077C152.04 87.937 158.324 87.825 164.608 87.731C166.38 87.7044 168.153 87.6804 169.926 87.6597C171.755 87.6377 173.583 87.699 175.405 87.5064C175.774 87.4664 175.779 86.9631 175.405 86.9284Z" fill="#D5F2F9"/>
<path d="M158.288 85.2393C160.759 85.4233 163.235 85.326 165.71 85.2687C168.131 85.212 170.551 85.1513 172.971 85.0913C177.866 84.9707 182.76 84.8567 187.655 84.7474C197.288 84.5327 206.916 84.2474 216.534 83.6721C218.172 83.5741 219.821 83.4914 221.47 83.4061L219.757 82.2715C219.214 82.3121 218.669 82.3542 218.127 82.3902C213.347 82.7028 208.563 82.9488 203.777 83.1568C194.108 83.5774 184.421 83.7761 174.747 84.0774C172.057 84.1607 169.368 84.2421 166.679 84.3294C163.88 84.42 161.068 84.442 158.289 84.804C158.016 84.8394 158.002 85.218 158.288 85.2393Z" fill="#D5F2F9"/>
<path d="M223.052 84.4526C222.745 84.4926 222.438 84.536 222.133 84.5686C220.547 84.7386 218.96 84.8973 217.37 85.0259C214.086 85.2913 210.795 85.4912 207.503 85.6446C204.21 85.7979 200.915 85.8952 197.619 85.9206C194.342 85.9459 190.999 85.6586 187.736 85.9459C187.475 85.9692 187.366 86.3919 187.669 86.4432C190.914 86.9925 194.336 86.8525 197.619 86.8745C200.915 86.8965 204.21 86.8545 207.503 86.7338C210.797 86.6125 214.085 86.4025 217.37 86.1232C219.064 85.9792 220.758 85.8326 222.45 85.6626C223.157 85.5912 223.875 85.5372 224.593 85.4726L223.052 84.4526Z" fill="#D5F2F9"/>
<path d="M217.135 79.0356C217.135 79.0356 101.868 81.8788 97.1382 83.0041C92.4084 84.13 90.6712 94.3175 90.6132 108.101C90.5552 121.884 94.589 238.568 95.9602 245.811C97.3315 253.054 115.495 260.433 123.733 260.482C131.976 260.531 232.307 259.906 236.394 259.389C240.481 258.873 230.334 88.5111 229.752 87.5212C229.17 86.5319 126.025 91.0583 121.642 90.9397C117.258 90.8217 102.636 84.4054 105.758 84.8027C108.881 85.2 215.522 80.7929 217.478 80.8455C219.434 80.8995 220.268 79.0423 217.135 79.0356Z" fill="#FFCE5E"/>
<path d="M120.581 98.034C120.551 96.2055 121.973 94.6809 123.799 94.5829L229.908 88.9105C229.872 88.4965 229.842 88.1726 229.816 87.9399V87.9379C229.814 87.9286 229.814 87.9172 229.812 87.9086C229.808 87.8712 229.804 87.8399 229.8 87.8086C229.799 87.7966 229.798 87.7852 229.796 87.7746C229.794 87.7599 229.792 87.7446 229.79 87.7319C229.788 87.7086 229.784 87.6879 229.782 87.6693C229.78 87.6606 229.779 87.6546 229.778 87.6466C229.776 87.6326 229.774 87.6179 229.772 87.6059C229.77 87.5939 229.768 87.5813 229.766 87.5719C229.76 87.5479 229.756 87.5299 229.752 87.5233C229.746 87.5133 229.724 87.5039 229.698 87.4946C229.687 87.4913 229.676 87.4873 229.662 87.4839C229.651 87.4813 229.634 87.4786 229.621 87.4753C225.53 86.6926 125.947 91.0577 121.641 90.9411C117.742 90.8358 105.75 85.75 105.346 84.9074C105.293 84.8661 105.27 84.8334 105.286 84.8114C105.315 84.7714 105.466 84.7661 105.758 84.8034C105.79 84.8074 105.837 84.8107 105.89 84.8141C105.904 84.8147 105.918 84.8154 105.934 84.8161C105.988 84.8187 106.05 84.8214 106.122 84.8227C106.128 84.8227 106.133 84.8234 106.139 84.8234C106.219 84.8254 106.312 84.8267 106.412 84.8274C106.436 84.8274 106.46 84.8281 106.484 84.8281C106.582 84.8287 106.687 84.8287 106.802 84.8287C106.812 84.8287 106.82 84.8287 106.83 84.8287C106.957 84.8287 107.096 84.8274 107.243 84.8267C107.275 84.8267 107.309 84.8261 107.342 84.8261C107.478 84.8247 107.622 84.8234 107.774 84.8214C107.79 84.8214 107.806 84.8207 107.823 84.8207C107.999 84.8187 108.185 84.8154 108.381 84.8121C108.408 84.8114 108.435 84.8114 108.463 84.8107C108.646 84.8074 108.837 84.8041 109.037 84.8001C109.056 84.7994 109.075 84.7994 109.094 84.7987C109.315 84.7941 109.546 84.7894 109.787 84.7841C109.811 84.7834 109.837 84.7827 109.861 84.7827C110.081 84.7781 110.31 84.7727 110.545 84.7667C110.581 84.7661 110.615 84.7647 110.651 84.7641C110.911 84.7581 111.179 84.7507 111.457 84.7441C111.474 84.7434 111.492 84.7434 111.509 84.7427C111.775 84.7361 112.051 84.7287 112.333 84.7207C112.369 84.7201 112.404 84.7187 112.439 84.7181C112.736 84.7101 113.041 84.7014 113.355 84.6927C113.385 84.6921 113.416 84.6907 113.446 84.6901C113.73 84.6821 114.021 84.6734 114.317 84.6648C114.382 84.6628 114.448 84.6607 114.514 84.6594C114.833 84.6501 115.158 84.6401 115.491 84.6301C115.517 84.6294 115.544 84.6288 115.57 84.6274C115.92 84.6168 116.276 84.6061 116.642 84.5947C116.653 84.5947 116.664 84.5941 116.676 84.5941C117.433 84.5708 118.224 84.5454 119.044 84.5194C119.096 84.5181 119.148 84.5161 119.2 84.5141C119.552 84.5028 119.912 84.4914 120.275 84.4794C120.332 84.4774 120.388 84.4761 120.445 84.4741C120.841 84.4614 121.243 84.4474 121.651 84.4341C121.747 84.4308 121.843 84.4274 121.939 84.4241C122.268 84.4134 122.6 84.4021 122.936 84.3908C123.023 84.3874 123.109 84.3848 123.196 84.3821C123.607 84.3681 124.023 84.3541 124.444 84.3401C124.559 84.3361 124.674 84.3321 124.789 84.3281C125.079 84.3181 125.371 84.3081 125.665 84.2981C125.883 84.2908 126.101 84.2834 126.323 84.2754C126.668 84.2634 127.015 84.2514 127.366 84.2394C127.59 84.2314 127.816 84.2241 128.043 84.2161C128.239 84.2094 128.436 84.2021 128.634 84.1954C128.842 84.1881 129.05 84.1808 129.259 84.1734C129.475 84.1661 129.694 84.1581 129.912 84.1508C130.432 84.1321 130.955 84.1134 131.486 84.0948C131.524 84.0934 131.561 84.0921 131.598 84.0908C132.585 84.0554 133.591 84.0194 134.611 83.9828C134.795 83.9761 134.979 83.9694 135.163 83.9628C135.425 83.9534 135.687 83.9441 135.951 83.9341C136.376 83.9188 136.803 83.9035 137.233 83.8875C137.456 83.8795 137.681 83.8708 137.906 83.8628C138.091 83.8561 138.277 83.8495 138.464 83.8421C139.293 83.8115 140.131 83.7808 140.976 83.7501C143.702 83.6495 146.502 83.5448 149.349 83.4381C149.739 83.4235 150.131 83.4088 150.524 83.3941C150.625 83.3901 150.727 83.3868 150.828 83.3828C151.576 83.3548 152.326 83.3261 153.08 83.2975C154.362 83.2488 155.65 83.2002 156.942 83.1508C157.415 83.1328 157.89 83.1148 158.363 83.0968C159.593 83.0502 160.823 83.0028 162.055 82.9555C162.907 82.9228 163.761 82.8902 164.613 82.8575C165.038 82.8415 165.464 82.8248 165.89 82.8082C191.838 81.8102 216.546 80.8223 217.478 80.8476C218.457 80.8736 219.154 80.423 219.216 79.9643C219.253 79.6837 219.049 79.4017 218.528 79.223C218.5 79.2137 218.469 79.205 218.439 79.1957C218.364 79.173 218.282 79.153 218.194 79.1344C218.158 79.127 218.124 79.119 218.086 79.1124C217.962 79.0904 217.83 79.0717 217.683 79.059C217.681 79.059 217.679 79.0584 217.677 79.0584C217.512 79.0444 217.331 79.037 217.135 79.0364C217.135 79.0364 214.042 79.1124 208.854 79.245C208.784 79.247 208.712 79.2484 208.642 79.2504C208.278 79.2597 207.905 79.269 207.522 79.279C207.49 79.2797 207.46 79.2804 207.428 79.2817C204.458 79.3577 200.912 79.4497 196.942 79.5537C196.871 79.5557 196.799 79.5577 196.729 79.559C196.198 79.573 195.662 79.587 195.116 79.6017C195.094 79.6024 195.072 79.603 195.049 79.6037C193.319 79.649 191.516 79.697 189.655 79.747C189.548 79.7497 189.441 79.753 189.333 79.7557C188.801 79.7697 188.265 79.7843 187.724 79.799C187.565 79.803 187.405 79.8077 187.246 79.8117C183.422 79.9143 179.378 80.0243 175.205 80.1397C175.058 80.1437 174.91 80.1477 174.763 80.1517C174.317 80.1637 173.869 80.1763 173.42 80.189C171.768 80.235 170.1 80.2816 168.418 80.329C168.249 80.3336 168.079 80.3383 167.91 80.343C166.1 80.3936 164.279 80.4456 162.45 80.4983C162.401 80.4996 162.351 80.501 162.302 80.5023C160.401 80.557 158.492 80.6123 156.584 80.6676C156.552 80.6683 156.521 80.6696 156.49 80.6703C154.616 80.725 152.744 80.7803 150.88 80.8356C150.345 80.8516 149.811 80.8676 149.277 80.8836C148.821 80.8976 148.365 80.9109 147.91 80.9249C147 80.9523 146.093 80.9796 145.19 81.0076C144.616 81.0249 144.043 81.0429 143.472 81.0603C142.818 81.0803 142.167 81.1003 141.518 81.1209C141.292 81.1276 141.066 81.1349 140.84 81.1423C139.167 81.1943 137.511 81.2463 135.88 81.2983C134.58 81.3403 133.295 81.3816 132.029 81.4229C131.748 81.4323 131.468 81.4416 131.188 81.4503C130.981 81.4569 130.773 81.4643 130.566 81.4709C128.978 81.5236 127.42 81.5756 125.899 81.6276C125.087 81.6556 124.285 81.6829 123.495 81.7109C122.731 81.7376 121.978 81.7642 121.236 81.7909C121.055 81.7976 120.877 81.8036 120.698 81.8102C120.38 81.8216 120.064 81.8329 119.75 81.8442C119.227 81.8636 118.71 81.8822 118.2 81.9009C117.824 81.9149 117.451 81.9289 117.082 81.9422C116.981 81.9462 116.878 81.9496 116.778 81.9536C116.102 81.9789 115.438 82.0042 114.788 82.0296C114.025 82.0589 113.279 82.0882 112.554 82.1176H112.553C111.862 82.1456 111.191 82.1729 110.537 82.2002C110.473 82.2029 110.409 82.2055 110.346 82.2082C109.719 82.2342 109.11 82.2602 108.519 82.2862C108.481 82.2875 108.443 82.2895 108.405 82.2909C107.779 82.3182 107.172 82.3455 106.59 82.3722C106.062 82.3962 105.553 82.4202 105.063 82.4442C104.678 82.4629 104.309 82.4809 103.948 82.4995C103.882 82.5029 103.814 82.5062 103.749 82.5095C103.417 82.5262 103.097 82.5435 102.786 82.5602C102.713 82.5642 102.64 82.5682 102.568 82.5722C102.262 82.5889 101.966 82.6055 101.684 82.6215C101.628 82.6249 101.574 82.6282 101.519 82.6315C101.234 82.6482 100.959 82.6648 100.699 82.6808C100.68 82.6822 100.66 82.6835 100.641 82.6842C100.305 82.7055 99.9886 82.7262 99.6966 82.7468C99.5393 82.7582 99.3899 82.7688 99.2453 82.7795C99.182 82.7842 99.1233 82.7888 99.0626 82.7935C98.9833 82.7995 98.904 82.8055 98.8293 82.8122C98.7687 82.8168 98.712 82.8222 98.654 82.8268C98.584 82.8328 98.5147 82.8388 98.4493 82.8448C98.3933 82.8502 98.3393 82.8548 98.2867 82.8595C98.2294 82.8648 98.174 82.8702 98.1207 82.8755C98.0674 82.8808 98.0154 82.8862 97.9654 82.8915C97.916 82.8968 97.8687 82.9015 97.8227 82.9068C97.7787 82.9115 97.736 82.9162 97.6954 82.9215C97.6494 82.9268 97.6081 82.9322 97.5667 82.9375C97.5321 82.9422 97.4961 82.9468 97.4641 82.9515C97.4234 82.9575 97.3881 82.9628 97.3521 82.9688C97.3274 82.9728 97.3007 82.9768 97.2787 82.9808C97.2334 82.9888 97.1947 82.9968 97.1594 83.0048C97.1527 83.0062 97.1441 83.0082 97.1374 83.0095C96.9981 83.0428 96.8614 83.0855 96.7274 83.1342C96.6848 83.1495 96.6428 83.1695 96.6008 83.1868C96.5101 83.2235 96.4201 83.2615 96.3321 83.3055C96.2828 83.3302 96.2348 83.3575 96.1868 83.3841C96.1075 83.4281 96.0281 83.4728 95.9508 83.5228C95.9015 83.5548 95.8521 83.5881 95.8035 83.6221C95.7288 83.6741 95.6548 83.7288 95.5822 83.7868C95.5348 83.8241 95.4875 83.8621 95.4408 83.9021C95.3675 83.9648 95.2955 84.0308 95.2248 84.0994C95.1815 84.1408 95.1375 84.1814 95.0948 84.2248C95.0182 84.3028 94.9435 84.3861 94.8689 84.4714C94.8342 84.5108 94.7989 84.5474 94.7649 84.5881C94.5435 84.8527 94.3322 85.1461 94.1302 85.4687C93.9922 85.69 93.8603 85.93 93.7309 86.178C93.6983 86.24 93.6663 86.3033 93.6349 86.3667C93.3816 86.8753 93.1463 87.4346 92.9283 88.0426C92.901 88.1186 92.8736 88.1959 92.847 88.2739C92.6336 88.8939 92.437 89.5612 92.2563 90.2731C92.2337 90.3631 92.211 90.4544 92.1883 90.5458C92.0123 91.2697 91.8523 92.037 91.7084 92.8463C91.6904 92.947 91.6724 93.0483 91.655 93.1503C91.585 93.5596 91.517 93.9756 91.4544 94.4042C91.4544 94.4042 91.4544 94.4056 91.4537 94.4069C91.391 94.8369 91.3337 95.2809 91.2784 95.7302C91.2644 95.8422 91.2511 95.9555 91.2377 96.0688C91.1311 96.9761 91.0391 97.92 90.9611 98.8987C90.9511 99.022 90.9417 99.1453 90.9324 99.27C90.8951 99.7619 90.8597 100.26 90.8297 100.769V100.771C90.7991 101.281 90.7731 101.803 90.7491 102.328C90.7431 102.46 90.7371 102.592 90.7317 102.725C90.7097 103.254 90.6891 103.786 90.6731 104.33V104.33C90.6571 104.874 90.6451 105.428 90.6358 105.986C90.6331 106.127 90.6311 106.268 90.6291 106.41C90.6204 106.97 90.6144 107.534 90.6118 108.107C90.6111 108.215 90.6111 108.329 90.6111 108.449C90.6118 110.011 90.6537 112.617 90.7304 116.045C90.7364 116.308 90.7424 116.577 90.7491 116.85C90.7744 117.944 90.8031 119.113 90.8344 120.352C90.8657 121.591 90.9004 122.9 90.9377 124.273C90.9564 124.959 90.9757 125.661 90.9957 126.377C91.0557 128.528 91.1217 130.814 91.1937 133.212C91.2651 135.611 91.3424 138.123 91.4237 140.726C91.4917 142.895 91.563 145.128 91.637 147.411C91.667 148.324 91.697 149.245 91.7277 150.174C91.7737 151.567 91.8204 152.976 91.8684 154.4C91.9004 155.348 91.9324 156.303 91.965 157.264C92.5023 173.106 93.1403 190.384 93.7623 205.462C93.8189 206.832 93.8749 208.185 93.9316 209.516C93.9876 210.847 94.0436 212.158 94.0996 213.445C94.2109 216.019 94.3209 218.498 94.4295 220.861C94.4655 221.648 94.5015 222.423 94.5369 223.184C94.5729 223.945 94.6082 224.692 94.6429 225.424C94.6602 225.79 94.6782 226.153 94.6955 226.512C95.2008 236.919 95.6482 244.178 95.9588 245.818C96.3448 247.855 98.0587 249.903 100.507 251.796C101.323 252.427 102.22 253.041 103.177 253.63C109.557 257.565 118.584 260.459 123.733 260.489C122.755 229.66 120.917 118.568 120.581 98.034Z" fill="#FF8F3D"/>
<path d="M210.629 129.075L145.988 131.406C143.451 131.497 141.301 129.497 141.21 126.96L140.956 119.908C140.864 117.372 142.865 115.222 145.401 115.13L210.042 112.8C212.579 112.709 214.729 114.708 214.82 117.245L215.074 124.297C215.165 126.834 213.165 128.984 210.629 129.075Z" fill="#FF8F3D"/>
<path d="M198.518 148.403L157.835 149.869C155.369 149.958 153.279 148.013 153.19 145.547C153.101 143.082 155.046 140.992 157.512 140.902L198.195 139.436C200.661 139.347 202.751 141.292 202.84 143.758C202.929 146.223 200.984 148.313 198.518 148.403Z" fill="#FF8F3D"/>
<path d="M117.857 113.918C117.264 113.137 116.071 113.108 115.156 113.042C114.134 112.969 113.095 113.062 112.069 113.04C109.993 112.996 107.928 112.782 105.89 112.384C103.872 111.991 101.878 111.433 99.9366 110.756C97.9814 110.074 96.0962 108.899 94.0083 108.752C93.5436 108.719 93.199 109.32 93.4616 109.705C94.6949 111.511 96.8934 112.32 98.846 113.133C100.885 113.982 102.986 114.622 105.148 115.076C107.284 115.525 109.466 115.806 111.647 115.906C112.765 115.957 113.9 115.992 115.015 115.87C115.88 115.775 117.447 115.508 117.856 114.62C117.954 114.41 118.013 114.123 117.857 113.918Z" fill="#FFCE5E"/>
<path d="M120.579 230.271C119.546 229.999 118.44 229.949 117.38 229.815C116.378 229.688 115.382 229.524 114.39 229.333C112.381 228.946 110.397 228.438 108.449 227.814C106.522 227.197 104.614 226.524 102.765 225.7C101.807 225.273 100.866 224.809 99.9186 224.361C99.0333 223.941 98.162 223.44 97.1587 223.643C96.8194 223.711 96.6167 224.12 96.7081 224.437C96.9994 225.449 97.9693 226.004 98.8146 226.532C99.7012 227.087 100.631 227.567 101.568 228.029C103.504 228.983 105.505 229.85 107.551 230.534C109.536 231.198 111.562 231.739 113.613 232.154C114.638 232.362 115.669 232.536 116.705 232.681C117.848 232.842 119.068 233.057 120.22 232.931C121.647 232.775 122.165 230.688 120.579 230.271Z" fill="#FFCE5E"/>
<path d="M146.697 235.679C142.857 236.885 141.116 239.237 141.232 244.312C141.347 249.387 142.832 255.706 145.473 257.465C148.113 259.223 150.818 257.656 151.828 255.403C152.839 253.15 155.248 244.759 153.122 241.73C150.996 238.7 146.697 235.679 146.697 235.679Z" fill="#697BAE"/>
<path d="M152.798 230.548C152.798 230.548 146.907 235.081 145.214 237.19C143.52 239.298 146.743 244.971 149.043 244.714C151.342 244.458 159.997 239.559 159.997 239.559L152.798 230.548Z" fill="#EBBA9D"/>
<path d="M197.795 151.549C197.795 151.549 203.837 178.746 204.041 193.868C204.246 208.991 159.287 242.71 159.287 242.71L149.887 229.835C149.887 229.835 172.775 202.86 176.454 195.503C180.132 188.146 174.411 176.702 174.411 176.702L175.841 154.427L197.795 151.549Z" fill="#222859"/>
<path d="M182.584 254.154C180.95 257.832 181.562 260.693 185.445 263.963C189.328 267.233 195.05 270.298 198.115 269.481C201.181 268.663 201.794 265.598 200.772 263.35C199.75 261.102 195.05 253.745 191.372 253.336C187.693 252.927 182.584 254.154 182.584 254.154Z" fill="#697BAE"/>
<path d="M180.666 248.84C180.666 248.84 182.909 255.927 184.309 258.24C185.711 260.553 192.144 259.466 192.69 257.218C193.237 254.97 191.597 245.161 191.597 245.161L180.666 248.84Z" fill="#EBBA9D"/>
<path d="M149.507 155.979C149.507 155.979 149.031 161.424 151.279 178.795C153.526 196.165 178.497 249.862 178.497 249.862L194.641 246.797C194.641 246.797 182.38 178.746 181.562 172.411C180.745 166.076 178.497 151.77 178.497 151.77L149.507 155.979Z" fill="#222859"/>
<path d="M161.814 82.3001C161.814 82.3001 150.946 86.3152 146.294 91.5203C141.642 96.726 137.323 119.541 137.877 125.411C138.431 131.281 144.522 139.366 151.278 134.936C151.278 134.936 148.177 153.764 147.291 157.087C147.291 157.087 181.237 166.501 200.398 151.992C200.398 151.992 197.906 133.801 195.996 126.823C195.996 126.823 198.072 127.654 201.893 126.076C207.299 123.843 207.21 118.184 203.388 112.038C199.858 106.359 193.587 87.7551 189.599 85.6506C185.612 83.546 177.223 82.1754 177.223 82.1754L167.227 80.7769L161.814 82.3001Z" fill="#697BAE"/>
<path d="M147.291 157.087C147.291 157.087 181.238 166.501 200.399 151.992L147.291 157.087Z" fill="#697BAE"/>
<path d="M162.354 81.3862C159.917 82.2722 159.696 82.9368 159.917 84.266C160.139 85.5953 167.56 88.3638 168.778 88.6965C169.996 89.0285 171.989 85.4846 171.989 85.4846C171.989 85.4846 174.98 87.5892 176.641 87.3672C178.302 87.1459 178.746 82.4941 177.97 81.8295C177.195 81.1649 162.354 81.3862 162.354 81.3862Z" fill="white"/>
<path d="M177.97 43.3974C171.551 39.3396 165.212 40.8629 162.193 42.5934C162.25 41.6522 162.158 40.6402 161.515 40.5262C160.285 40.3069 159.501 44.5873 159.501 44.5873C159.501 44.5873 156.48 42.0628 155.25 42.8314C154.615 43.2274 155.469 44.148 156.444 44.9473C147.735 46.9399 145.724 57.2747 148.067 67.2101C150.708 78.4082 161.69 78.6182 161.69 78.6182C161.69 78.6182 163.657 75.5097 175.977 74.0771C190.264 72.4152 188.041 49.7631 177.97 43.3974Z" fill="#222859"/>
<path d="M162.479 74.4497L161.814 82.2993C161.814 82.2993 169.996 86.9511 177.222 82.1746L176.226 74.4077L162.479 74.4497Z" fill="#EBBA9D"/>
<path d="M176.226 74.4084L162.479 74.4498L161.885 81.4674C163.062 82.0227 164.429 82.29 165.735 82.44C169.592 82.8813 173.761 82.6667 177.029 80.6615L176.226 74.4084Z" fill="#EB977D"/>
<path d="M153.878 64.1645C153.878 64.1645 150.181 64.0805 150.769 67.105C151.357 70.1295 153.542 70.1295 154.634 69.7935C154.634 69.7935 157.875 81.5502 170.007 81.3862C182.44 81.2182 185.296 68.0289 181.432 56.4362C181.432 56.4362 167.836 57.5468 162.686 53.2271C162.686 53.2271 158.75 62.9885 153.878 64.1645Z" fill="#EBBA9D"/>
<path d="M154.36 67.4549C154.213 66.9989 153.878 66.6776 153.5 66.4036C153.324 66.2763 153.134 66.1696 152.935 66.0829C152.77 66.0103 152.628 65.9496 152.447 65.9323C152.174 65.9056 151.955 66.0683 151.924 66.3403C151.901 66.5503 152.054 66.6936 152.214 66.7949C152.249 66.8169 152.282 66.8316 152.321 66.8482C152.387 66.8762 152.396 66.8802 152.348 66.8596C152.31 66.8436 152.309 66.8429 152.345 66.8589C152.39 66.8796 152.435 66.9002 152.479 66.9229C152.545 66.9569 152.61 66.9956 152.674 67.0349C152.628 67.0849 152.585 67.1382 152.554 67.1996C152.423 67.4622 152.37 67.7589 152.451 68.0462C152.6 68.5735 153.231 68.8968 153.749 68.7275C154.282 68.5535 154.527 67.9748 154.36 67.4549Z" fill="#EB977D"/>
<path d="M181.432 56.4355C181.432 56.4355 167.836 57.5461 162.686 53.2263C162.686 53.2263 158.75 62.9878 153.878 64.1644C158.367 64.1084 162.354 59.3733 163.434 55.8015C163.434 55.8015 175.259 59.2293 181.432 56.4355Z" fill="#EB977D"/>
<path d="M154.724 98.4793C154.713 98.456 154.674 98.45 154.657 98.4706C154.433 98.7413 154.425 99.1173 154.369 99.4546C154.305 99.8419 154.237 100.229 154.175 100.617C154.04 101.45 153.934 102.288 153.818 103.125C153.588 104.773 153.36 106.422 153.119 108.068C152.877 109.717 152.649 111.367 152.397 113.015C152.147 114.646 151.794 116.282 151.638 117.926C151.617 118.15 151.968 118.188 152.023 117.978C152.453 116.352 152.667 114.65 152.95 112.993C153.231 111.353 153.51 109.713 153.75 108.068C153.986 106.45 154.211 104.83 154.409 103.206C154.512 102.368 154.618 101.528 154.688 100.687C154.721 100.295 154.748 99.9026 154.776 99.5099C154.802 99.1679 154.882 98.7953 154.724 98.4793Z" fill="#222859"/>
<path d="M196.464 127.329C196.278 126.651 196.06 125.979 195.848 125.308C195.642 124.659 195.431 124.013 195.215 123.368C195.028 122.811 194.864 122.087 194.5 121.618C194.434 121.534 194.298 121.607 194.298 121.701C194.299 122.005 194.418 122.293 194.505 122.582C194.603 122.907 194.704 123.231 194.809 123.555C195.019 124.201 195.224 124.85 195.424 125.5C195.623 126.15 195.807 126.805 196.01 127.454C196.194 128.044 196.318 128.748 196.651 129.274C196.715 129.376 196.874 129.335 196.877 129.213C196.891 128.595 196.627 127.92 196.464 127.329Z" fill="#222859"/>
<path d="M199.937 148.751C194.411 151.832 188.471 154.056 182.232 155.258C178.494 155.977 174.707 156.285 170.904 156.328C166.916 156.374 162.921 156.194 158.954 155.776C155.249 155.386 151.59 154.766 147.937 154.072C147.904 154.24 147.871 154.408 147.84 154.567C150.955 155.32 154.13 155.86 157.303 156.251C161.345 156.751 165.417 157.025 169.49 157.055C173.351 157.084 177.199 156.865 181.01 156.224C184.653 155.611 188.233 154.652 191.694 153.36C194.568 152.286 197.371 151.018 200.049 149.521C200.014 149.28 199.976 149.022 199.937 148.751Z" fill="#222859"/>
<path d="M181.143 148.478C180.912 146.192 180.67 143.906 180.431 141.62C179.959 137.11 179.507 132.6 179.016 128.093C178.526 123.585 177.945 119.095 177.19 114.623C176.434 110.147 175.657 105.675 174.901 101.2C174.039 96.0999 173.246 90.9835 172.309 85.8971C172.269 85.6798 171.89 85.7271 171.919 85.9498C172.505 90.4842 173.257 95.002 173.984 99.5151C174.708 104.004 175.47 108.487 176.25 112.966C177.037 117.489 177.738 122.017 178.244 126.58C178.744 131.083 179.206 135.59 179.681 140.095C179.952 142.663 180.216 145.233 180.495 147.8C180.77 150.332 180.969 152.883 181.33 155.404C181.37 155.685 181.844 155.619 181.826 155.337C181.675 153.047 181.374 150.762 181.143 148.478Z" fill="#222859"/>
<path d="M162.575 93.0154L163.573 91.3541L181.626 97.6118L194.307 89.7476L195.968 90.8555L181.459 98.2758L162.575 93.0154Z" fill="#D5F2F9"/>
<path d="M159.474 95.3966L162.133 92.2955L181.626 97.6119L195.802 90.1909L198.681 92.5168L181.515 102.928L159.474 95.3966Z" fill="white"/>
<path d="M157.747 93.9368L158.854 123.176L182.778 130.708L201.229 115.886L199.169 90.5037L181.448 100.582L157.747 93.9368Z" fill="#ED6C6B"/>
<path d="M153.134 131.558C146.322 129.149 146.295 121.756 146.295 121.756C146.295 121.756 155.21 116.19 157.786 114.031C160.361 111.871 162.188 106.389 163.102 105.641C164.016 104.894 164.68 105.891 164.514 106.887C164.348 107.884 163.933 109.379 163.933 109.379C163.933 109.379 166.757 104.977 167.67 104.23C168.584 103.482 169.581 103.897 169.332 104.811C169.082 105.725 166.674 109.463 166.674 109.463C166.674 109.463 170.495 105.226 171.076 104.977C171.657 104.728 172.821 104.894 172.405 106.139C172.405 106.139 173.568 106.638 172.821 108.05C172.821 108.05 173.735 108.382 173.153 109.795C172.571 111.207 166.84 116.025 166.009 117.104C165.178 118.184 153.134 131.558 153.134 131.558Z" fill="#EBBA9D"/>
<path d="M199.635 111.334C197.597 108.911 196.213 103.764 195.425 102.979C194.638 102.194 193.922 103.067 193.986 104.017C194.05 104.967 194.302 106.407 194.302 106.407C194.302 106.407 192.06 102.019 191.272 101.234C190.484 100.449 189.512 100.747 189.661 101.626C189.811 102.506 191.724 106.232 191.724 106.232C191.724 106.232 188.533 101.908 188.011 101.621C187.489 101.334 186.383 101.382 186.657 102.589C186.657 102.589 185.521 102.949 186.092 104.342C186.092 104.342 185.205 104.569 185.62 105.946C186.035 107.323 190.884 112.423 191.643 113.458C192.572 114.724 195.83 123.003 195.83 123.003C195.83 123.003 201.727 123.917 203.499 117.52C203.499 117.52 200.561 112.435 199.635 111.334Z" fill="#EBBA9D"/>
<path d="M146.411 121.683C146.336 121.73 146.294 121.756 146.294 121.756C146.294 121.756 146.309 125.567 148.838 128.608C149.897 129.826 151.283 130.896 153.102 131.546C153.113 131.55 153.122 131.554 153.133 131.558C153.133 131.558 153.205 131.478 153.327 131.343C153.374 131.29 153.428 131.23 153.491 131.16C153.719 130.907 154.048 130.541 154.455 130.089C151.397 128.8 147.887 124.809 146.411 121.683Z" fill="#EB977D"/>
<path d="M195.305 121.685C195.626 122.483 195.83 123.002 195.83 123.002C195.83 123.002 201.728 123.916 203.5 117.52C203.5 117.52 203.488 117.499 203.469 117.466C201.243 119.639 198.358 121.105 195.305 121.685Z" fill="#EB977D"/>
<path d="M164.642 106.117C164.624 106.015 164.484 106.035 164.455 106.117C164.353 106.407 164.321 106.7 164.273 107.003C164.225 107.304 164.167 107.603 164.1 107.9C164.033 108.197 163.965 108.495 163.884 108.789C163.843 108.936 163.797 109.081 163.761 109.229C163.729 109.355 163.685 109.488 163.736 109.613C163.76 109.671 163.821 109.707 163.882 109.672C164.112 109.541 164.179 109.124 164.247 108.888C164.335 108.585 164.416 108.279 164.477 107.969C164.594 107.376 164.748 106.719 164.642 106.117Z" fill="#EB977D"/>
<path d="M169.356 104.587C169.335 104.488 169.194 104.501 169.167 104.587C169.039 104.993 168.928 105.375 168.716 105.749C168.498 106.135 168.263 106.513 168.033 106.891C167.796 107.28 167.556 107.668 167.312 108.053C167.07 108.434 166.788 108.811 166.591 109.215C166.509 109.384 166.732 109.594 166.87 109.43C167.168 109.073 167.402 108.644 167.644 108.247C167.906 107.82 168.165 107.39 168.418 106.957C168.654 106.556 168.898 106.155 169.1 105.735C169.268 105.385 169.438 104.983 169.356 104.587Z" fill="#EB977D"/>
<path d="M172.994 107.856C173.218 107.283 173.259 106.666 172.786 106.19C172.713 106.116 172.604 106.162 172.565 106.238C172.575 106.19 172.591 106.143 172.597 106.094C172.631 105.863 172.679 105.59 172.538 105.39C172.516 105.358 172.465 105.351 172.445 105.39C172.331 105.608 172.361 105.876 172.3 106.114C172.225 106.406 172.103 106.683 171.95 106.942C171.656 107.442 171.259 107.869 170.861 108.287C170.444 108.726 170.023 109.161 169.604 109.598C169.383 109.828 169.163 110.058 168.943 110.289C168.727 110.515 168.47 110.731 168.314 111.003C168.216 111.173 168.416 111.391 168.59 111.279C168.854 111.108 169.056 110.844 169.272 110.616C169.516 110.357 169.76 110.097 170.004 109.838C170.461 109.351 170.93 108.874 171.37 108.373C171.754 107.937 172.111 107.477 172.347 106.942C172.44 106.73 172.507 106.509 172.555 106.283C172.555 106.307 172.553 106.331 172.569 106.356C173.227 107.348 172.349 108.265 171.731 109.001C170.984 109.891 170.235 110.78 169.493 111.675C169.305 111.902 169.628 112.231 169.82 112.002C170.686 110.967 171.576 109.943 172.401 108.875C172.559 108.669 172.721 108.421 172.856 108.157C173.037 108.453 173.132 108.769 173.041 109.13C172.913 109.635 172.529 110.046 172.201 110.433C171.836 110.865 171.467 111.295 171.108 111.733C170.928 111.953 170.747 112.171 170.568 112.391C170.41 112.585 170.19 112.795 170.132 113.042C170.1 113.175 170.231 113.254 170.345 113.206C170.615 113.091 170.82 112.768 171.009 112.55C171.227 112.299 171.446 112.048 171.663 111.795C172.087 111.301 172.52 110.805 172.919 110.289C173.238 109.879 173.509 109.409 173.512 108.874C173.515 108.475 173.361 108.047 172.994 107.856Z" fill="#EB977D"/>
<path d="M189.67 107.201C189.462 106.943 189.261 106.681 189.061 106.418C188.669 105.901 188.305 105.367 187.945 104.827C187.597 104.307 187.259 103.777 186.957 103.228C186.795 102.934 186.624 102.574 186.691 102.227C186.723 102.06 186.816 101.904 186.95 101.802C187.074 101.706 187.207 101.713 187.347 101.662C187.431 101.63 187.461 101.51 187.373 101.46C186.937 101.214 186.498 101.821 186.439 102.194C186.429 102.264 186.429 102.334 186.43 102.405C186.047 102.466 185.803 103.112 185.737 103.419C185.67 103.729 185.677 104.039 185.732 104.342C185.431 104.582 185.268 105.033 185.233 105.392C185.184 105.883 185.353 106.337 185.629 106.737C185.948 107.199 186.33 107.623 186.685 108.057C186.888 108.305 187.091 108.553 187.293 108.801C187.503 109.057 187.701 109.351 187.949 109.569C188.037 109.647 188.171 109.55 188.113 109.443C187.865 108.981 187.465 108.565 187.145 108.15C186.815 107.721 186.48 107.295 186.156 106.862C185.888 106.505 185.639 106.113 185.639 105.651C185.639 105.445 185.681 105.237 185.762 105.047C185.792 104.977 185.835 104.917 185.875 104.855C185.901 104.925 185.923 104.996 185.953 105.065C186.223 105.675 186.634 106.222 187.039 106.748C187.497 107.342 187.991 107.905 188.516 108.441C188.673 108.602 188.924 108.352 188.763 108.195C187.889 107.338 187.037 106.381 186.413 105.324C186.271 105.085 186.147 104.828 186.063 104.562C186.073 104.544 186.087 104.528 186.097 104.51C186.158 104.396 186.091 104.284 185.991 104.247C185.957 104.059 185.939 103.868 185.962 103.674C185.991 103.425 186.069 103.176 186.205 102.964C186.273 102.854 186.375 102.763 186.459 102.662C186.567 103.212 186.949 103.762 187.202 104.205C187.6 104.902 188.041 105.567 188.519 106.211C188.743 106.511 188.974 106.807 189.215 107.095C189.437 107.361 189.697 107.791 190.014 107.938C190.076 107.967 190.165 107.918 190.14 107.841C190.06 107.59 189.832 107.401 189.67 107.201Z" fill="#EB977D"/>
<path d="M191.73 105.755C191.626 105.524 191.525 105.291 191.418 105.062C191.204 104.605 190.977 104.153 190.756 103.699C190.53 103.236 190.279 102.776 190.087 102.298C189.912 101.86 189.823 101.363 190.082 100.94C190.172 100.794 189.951 100.671 189.855 100.808C189.258 101.653 189.912 102.683 190.281 103.476C190.525 104 190.77 104.523 191.015 105.047C191.138 105.308 191.269 105.565 191.398 105.823C191.516 106.055 191.607 106.317 191.773 106.518C191.866 106.63 192.021 106.506 191.998 106.387C191.952 106.166 191.822 105.962 191.73 105.755Z" fill="#EB977D"/>
<path d="M194.492 103.008C194.549 102.945 194.515 102.81 194.414 102.822C194.104 102.856 193.91 103.13 193.803 103.4C193.654 103.774 193.674 104.196 193.679 104.592C193.69 105.346 193.722 106.204 194.147 106.855C194.194 106.927 194.274 106.961 194.359 106.941C194.393 106.933 194.417 106.917 194.442 106.892C194.485 106.849 194.514 106.77 194.49 106.71C194.234 106.086 194.093 105.466 194.055 104.793C194.036 104.459 194.004 104.106 194.052 103.773C194.102 103.438 194.273 103.248 194.492 103.008Z" fill="#EB977D"/>
<path d="M153.532 131.522C153.03 131.355 152.511 131.264 152.016 131.072C151.528 130.882 151.052 130.64 150.617 130.348C149.721 129.746 148.94 128.956 148.331 128.064C147.004 126.121 146.573 123.723 146.615 121.406C146.619 121.129 146.326 121.006 146.101 121.111C145.427 121.427 144.724 121.682 144.046 121.992C143.418 122.279 142.732 122.549 142.194 122.99C142.11 123.059 142.203 123.18 142.294 123.161C142.987 123.014 143.65 122.666 144.313 122.419C144.844 122.22 145.384 122.026 145.929 121.865C145.913 124.219 146.592 126.586 147.978 128.501C148.629 129.401 149.431 130.18 150.353 130.8C151.047 131.265 151.874 131.746 152.724 131.966C152.732 132.018 152.753 132.065 152.782 132.108C152.15 133.429 151.185 134.601 149.891 135.315C149.128 135.735 148.27 135.992 147.398 136.034C146.955 136.055 146.51 136.041 146.072 135.964C145.684 135.896 145.31 135.723 144.919 135.688C144.872 135.684 144.856 135.745 144.883 135.775C145.192 136.117 145.737 136.275 146.17 136.388C146.684 136.523 147.215 136.577 147.745 136.551C148.806 136.499 149.831 136.171 150.725 135.597C151.569 135.056 152.298 134.329 152.855 133.496C153.127 133.09 153.383 132.648 153.56 132.191C153.577 132.146 153.588 132.1 153.596 132.056C153.791 131.949 153.778 131.604 153.532 131.522Z" fill="#222859"/>
<path d="M203.71 117.065C203.652 116.939 203.488 116.977 203.422 117.065C203.19 117.377 203.146 117.825 203.028 118.188C202.894 118.605 202.719 119.002 202.5 119.381C202.069 120.127 201.489 120.779 200.792 121.286C200.05 121.826 199.199 122.226 198.318 122.478C197.892 122.6 197.454 122.688 197.017 122.76C196.543 122.838 196.05 122.833 195.582 122.934C195.433 122.966 195.444 123.186 195.582 123.224C196.522 123.483 197.685 123.274 198.606 123.022C199.58 122.756 200.491 122.319 201.287 121.697C202.017 121.126 202.655 120.407 203.112 119.599C203.483 118.941 204.055 117.822 203.71 117.065Z" fill="#222859"/>
<path d="M182.984 127.49C182.946 126.548 182.904 125.607 182.87 124.665C182.802 122.753 182.734 120.841 182.664 118.929C182.526 115.161 182.389 111.392 182.2 107.627C182.145 106.543 182.085 105.458 182.027 104.374C182 103.862 181.973 103.351 181.934 102.84C181.894 102.322 181.904 101.777 181.714 101.289C181.676 101.192 181.535 101.178 181.502 101.289C181.384 101.687 181.404 102.09 181.408 102.502C181.412 103.012 181.419 103.522 181.435 104.032C181.464 104.973 181.493 105.915 181.522 106.857C181.581 108.769 181.666 110.681 181.742 112.593C181.893 116.418 182.088 120.242 182.274 124.066C182.326 125.15 182.372 126.234 182.419 127.319C182.464 128.358 182.439 129.435 182.606 130.462C182.65 130.731 183.036 130.641 183.055 130.401C183.13 129.443 183.022 128.45 182.984 127.49Z" fill="#222859"/>
<path d="M164.179 60.5539C163.611 60.5299 163.036 60.6172 162.511 60.8385C162.023 61.0445 161.623 61.3639 161.312 61.7945C161.17 61.9918 161.073 62.2298 161.022 62.4671C160.941 62.8424 161.114 63.3138 161.582 63.2244C161.83 63.1771 161.934 62.9484 162.058 62.7604C162.065 62.7498 162.101 62.7018 162.103 62.6991C162.118 62.6811 162.134 62.6624 162.149 62.6444C162.201 62.5818 162.252 62.5198 162.309 62.4618C162.341 62.4298 162.373 62.3978 162.407 62.3678C162.414 62.3618 162.456 62.3278 162.476 62.3105C162.493 62.2985 162.515 62.2831 162.519 62.2805C162.556 62.2551 162.594 62.2291 162.633 62.2051C162.702 62.1611 162.774 62.1218 162.848 62.0858C162.865 62.0771 162.881 62.0705 162.894 62.0652C162.937 62.0492 162.98 62.0332 163.024 62.0192C163.117 61.9892 163.213 61.9645 163.309 61.9445C163.351 61.9358 163.395 61.9285 163.437 61.9212C163.325 61.9418 163.466 61.9185 163.489 61.9165C163.696 61.8978 163.905 61.8972 164.113 61.9112C164.157 61.9138 164.201 61.9178 164.245 61.9218C164.243 61.9212 164.321 61.9305 164.353 61.9338C164.383 61.9385 164.429 61.9458 164.438 61.9478C164.471 61.9538 164.503 61.9605 164.535 61.9685C164.565 61.9758 164.594 61.9858 164.623 61.9945C164.629 61.9985 164.627 61.9985 164.643 62.0065C164.789 62.0818 164.938 62.1165 165.102 62.1238C165.422 62.1391 165.762 61.8212 165.734 61.4925C165.664 60.6839 164.832 60.5819 164.179 60.5539Z" fill="#222859"/>
<path d="M176.663 59.2419C176.231 59.0172 175.757 58.8866 175.269 58.8752C174.375 58.8539 173.305 59.2966 172.964 60.1778C172.83 60.5245 173.259 60.7378 173.529 60.6125C173.669 60.5478 173.805 60.4718 173.939 60.3985C173.997 60.3665 174.117 60.3085 174.141 60.2985C174.137 60.2998 174.253 60.2505 174.288 60.2365C174.299 60.2318 174.297 60.2325 174.302 60.2305C174.307 60.2292 174.307 60.2292 174.319 60.2245C174.468 60.1705 174.619 60.1292 174.774 60.1012C174.781 60.0999 174.779 60.0998 174.783 60.0992C174.787 60.0992 174.785 60.0992 174.793 60.0985C174.832 60.0952 174.871 60.0925 174.91 60.0898C174.999 60.0845 175.088 60.0832 175.177 60.0879C175.213 60.0899 175.249 60.0925 175.285 60.0958C175.295 60.0972 175.303 60.0978 175.316 60.1005C175.395 60.1158 175.474 60.1332 175.552 60.1552C175.625 60.1758 175.697 60.2005 175.767 60.2278C175.777 60.2318 175.785 60.2352 175.797 60.2412C175.833 60.2592 175.87 60.2772 175.905 60.2965C175.971 60.3318 176.034 60.3718 176.097 60.4125C176.111 60.4225 176.133 60.4378 176.147 60.4505C176.178 60.4772 176.207 60.5038 176.236 60.5318C176.295 60.5878 176.35 60.6465 176.406 60.7051C176.43 60.7318 176.454 60.7592 176.478 60.7865C176.481 60.7945 176.481 60.7978 176.493 60.8211C176.623 61.0738 176.982 61.2178 177.252 61.1298C177.55 61.0331 177.72 60.7898 177.745 60.4818C177.792 59.9159 177.103 59.4706 176.663 59.2419Z" fill="#222859"/>
<path d="M165.855 66.4809C165.755 65.6196 165.312 64.7817 164.587 64.6843C164.208 64.6337 163.866 64.779 163.585 65.0283C163.164 65.4003 163.023 66.0129 163.027 66.5522C163.031 67.1075 163.131 67.7109 163.525 68.1295C163.751 68.3702 164.055 68.5121 164.377 68.5555C164.767 68.6081 165.14 68.4748 165.425 68.2048C165.801 67.8488 165.934 67.1582 165.855 66.4809Z" fill="#222859"/>
<path d="M176.858 64.9831C176.758 64.1218 176.315 63.2839 175.59 63.1865C175.211 63.1359 174.869 63.2812 174.587 63.5305C174.167 63.9025 174.026 64.5151 174.03 65.0544C174.034 65.6098 174.134 66.213 174.527 66.6317C174.753 66.8723 175.057 67.0143 175.38 67.0577C175.77 67.1103 176.143 66.977 176.428 66.707C176.803 66.3517 176.937 65.6604 176.858 64.9831Z" fill="#222859"/>
<path d="M171.199 68.2836C171.064 68.3503 170.959 68.4623 170.844 68.5576C170.839 68.5623 170.801 68.5929 170.795 68.5976C170.776 68.6123 170.756 68.6269 170.736 68.6416C170.687 68.6769 170.637 68.7096 170.586 68.7429C170.48 68.8142 170.375 68.8869 170.262 68.9469C170.23 68.9642 170.196 68.9809 170.162 68.9969C170.156 68.9996 170.144 69.0042 170.136 69.0076C170.078 69.0296 170.019 69.0489 169.96 69.0649C169.908 69.0782 169.856 69.0896 169.804 69.0976H169.803C169.8 69.0976 169.801 69.0969 169.792 69.0976C169.758 69.0996 169.725 69.1022 169.692 69.1036C169.638 69.1049 169.586 69.1022 169.532 69.0996C169.523 69.0989 169.51 69.0976 169.503 69.0969C169.474 69.0922 169.446 69.0862 169.418 69.0809C169.309 69.0596 169.203 69.0382 169.099 68.9982C169.028 68.9702 168.904 68.9382 168.816 68.8916C168.67 68.8156 168.46 68.9436 168.52 69.1189C168.565 69.2495 168.624 69.3969 168.721 69.4989C168.821 69.6035 168.961 69.6922 169.092 69.7542C169.37 69.8855 169.707 69.9202 170.01 69.8849C170.348 69.8462 170.669 69.7375 170.965 69.5702C171.122 69.4815 171.265 69.3609 171.4 69.2429C171.534 69.1262 171.677 69.0036 171.758 68.8422C171.945 68.4696 171.571 68.1009 171.199 68.2836Z" fill="#EB977D"/>
<path d="M165.602 72.9452C166.17 71.9833 174.497 71.2733 175.227 71.6539C175.955 72.0346 174.851 76.255 171.117 76.6517C167.377 77.0483 165.093 73.8078 165.602 72.9452Z" fill="#222859"/>
<path d="M174.447 74.7424C173.721 74.3444 172.866 74.1258 172.041 74.0898C170.37 74.0178 168.615 74.6197 167.48 75.8037C168.417 76.4016 169.654 76.8063 171.117 76.651C172.659 76.4876 173.745 75.6704 174.447 74.7424Z" fill="#ED6C6B"/>
<path d="M175.227 71.6539C174.498 71.2733 166.17 71.9833 165.602 72.9452C165.53 73.0659 165.519 73.2359 165.554 73.4332C166.27 73.7518 167.175 73.6692 167.984 73.5512C170.002 73.2565 172.021 72.9625 174.039 72.6679C174.495 72.6012 174.971 72.5206 175.426 72.3932C175.453 72.0166 175.388 71.7379 175.227 71.6539Z" fill="white"/>
<path d="M165.125 64.3638C164.235 64.3638 164.233 65.7464 165.125 65.7464C166.014 65.7464 166.016 64.3638 165.125 64.3638Z" fill="white"/>
<path d="M176.243 62.9236C175.353 62.9236 175.351 64.3062 176.243 64.3062C177.133 64.3062 177.134 62.9236 176.243 62.9236Z" fill="white"/>
<path d="M182.673 172.788C182.68 172.785 182.687 172.784 182.693 172.782C182.693 172.782 182.689 172.783 182.673 172.788Z" fill="#697BAE"/>
<path d="M183.467 183.023C183.246 181.402 183.039 179.778 182.825 178.156C182.65 176.834 182.615 175.359 182.261 174.048C182.377 174.019 182.494 173.991 182.606 173.949C182.804 173.875 183.003 173.773 183.166 173.635C183.337 173.49 183.457 173.328 183.486 173.102C183.468 173.169 183.45 173.236 183.432 173.303C183.451 173.263 183.473 173.227 183.496 173.189C183.648 172.933 183.397 172.615 183.114 172.691C183.026 172.715 183.129 172.702 183.165 172.711C183.09 172.691 183.011 172.696 182.935 172.711C182.877 172.723 182.819 172.745 182.761 172.761C182.738 172.768 182.715 172.775 182.693 172.781C182.69 172.786 182.459 172.877 182.526 172.85C182.575 172.83 182.487 172.864 182.478 172.867C182.449 172.878 182.419 172.888 182.389 172.899C182.377 172.903 182.303 172.933 182.27 172.947C182.256 172.953 182.219 172.967 182.213 172.969C182.154 172.992 182.095 173.013 182.034 173.031C181.906 173.071 181.776 173.104 181.644 173.127C181.62 173.131 181.596 173.135 181.572 173.139C181.565 173.14 181.561 173.141 181.546 173.142C181.482 173.147 181.42 173.151 181.356 173.155C181.234 173.163 181.112 173.178 180.989 173.177C180.954 173.177 180.828 173.162 180.924 173.178C180.855 173.166 180.788 173.147 180.72 173.137C180.734 173.139 180.662 173.128 180.64 173.125C180.63 173.123 180.622 173.121 180.619 173.121C180.613 173.119 180.55 173.103 180.584 173.111C180.623 173.121 180.544 173.081 180.58 173.111C180.345 172.92 180.044 173.1 180.09 173.396C180.186 174.01 180.915 174.171 181.464 174.162C181.426 175.369 181.686 176.641 181.818 177.821C181.98 179.268 182.16 180.712 182.347 182.156C182.698 184.868 183.074 187.577 183.476 190.282C184.307 195.88 185.269 201.455 186.355 207.009C186.978 210.197 187.647 213.374 188.39 216.536C188.512 217.051 189.277 216.83 189.178 216.319C187.028 205.262 184.991 194.188 183.467 183.023Z" fill="#697BAE"/>
<path d="M159.945 160.991C159.678 161.276 159.498 161.636 159.275 161.956C159.069 162.25 158.849 162.531 158.614 162.802C158.131 163.359 157.594 163.857 157.028 164.326C156.473 164.786 155.867 165.186 155.234 165.529C154.914 165.703 154.597 165.913 154.264 166.06C154.14 166.116 154.008 166.155 153.887 166.187C153.805 166.209 153.723 166.212 153.692 166.308C153.602 166.585 153.973 166.812 154.204 166.838C154.572 166.879 155.03 166.698 155.365 166.562C156.138 166.248 156.876 165.825 157.556 165.346C158.239 164.865 158.864 164.304 159.426 163.686C159.713 163.37 159.981 163.037 160.237 162.695C160.499 162.344 160.784 161.979 160.921 161.558C161.102 161.005 160.338 160.571 159.945 160.991Z" fill="#697BAE"/>
<path d="M198.697 162.589C198.075 162.193 197.261 162.204 196.56 162.028C195.847 161.849 195.171 161.567 194.531 161.206C193.886 160.841 193.314 160.388 192.781 159.875C192.523 159.626 192.278 159.361 192.06 159.077C191.823 158.768 191.628 158.455 191.302 158.231C191.128 158.112 190.901 158.272 190.898 158.463C190.883 159.253 191.57 160.035 192.054 160.602C192.588 161.228 193.26 161.755 193.961 162.182C194.668 162.614 195.453 162.935 196.256 163.137C197.013 163.328 198.014 163.531 198.698 163.034C198.854 162.92 198.871 162.7 198.697 162.589Z" fill="#697BAE"/>
<path d="M171.486 232.344C171.006 230.755 170.126 229.203 169.447 227.686C168.694 226.006 167.954 224.32 167.244 222.621C166.56 220.987 165.904 219.341 165.252 217.695C164.925 216.872 164.627 216.035 164.284 215.219C164.078 214.731 163.989 214.181 163.457 214.008C163.425 213.997 163.389 214.015 163.372 214.042C163.045 214.568 163.43 215.208 163.614 215.747C163.901 216.583 164.22 217.41 164.533 218.236C165.158 219.891 165.822 221.533 166.5 223.168C167.151 224.738 167.82 226.3 168.508 227.854C169.202 229.424 169.856 231.204 170.819 232.627C171.041 232.953 171.612 232.76 171.486 232.344Z" fill="#697BAE"/>
<path d="M163.192 239.122C161.911 237.205 160.593 235.31 159.261 233.427C157.96 231.587 156.643 229.759 155.283 227.962C154.68 227.166 154.06 226.386 153.431 225.612C153.276 225.798 153.126 225.978 152.979 226.154C153.522 226.952 154.066 227.749 154.62 228.54C155.91 230.381 157.205 232.22 158.472 234.077C159.739 235.936 160.979 237.812 162.211 239.695C162.32 239.863 162.429 240.033 162.537 240.203C162.824 239.978 163.123 239.744 163.441 239.492C163.359 239.369 163.275 239.246 163.192 239.122Z" fill="#697BAE"/>
<path d="M193.658 241.333C191.596 242.008 189.545 242.711 187.463 243.328C185.149 244.014 182.825 244.664 180.479 245.237C179.25 245.537 178.001 245.793 176.76 246.076C176.87 246.317 176.975 246.549 177.075 246.769C178.129 246.577 179.176 246.345 180.21 246.118C182.62 245.588 185.023 245.003 187.393 244.314C189.555 243.685 191.686 242.97 193.826 242.27C193.773 241.97 193.716 241.657 193.658 241.333Z" fill="#697BAE"/>
<path d="M98.663 142.555L115.865 149.302L116.041 153.156L99.5242 161.462L99.3377 157.368L113.942 150.524L114.012 152.065L98.8451 146.553L98.663 142.555ZM102.447 146.148L105.457 147.049L105.852 155.719L102.937 156.914L102.447 146.148ZM105.155 169.046L108.166 168.909L108.476 175.725L105.466 175.862L105.155 169.046ZM100.599 185.061L103.128 184.946L116.176 194.802L114.777 195.349L114.288 184.63L117.468 184.486L118.114 198.672L115.585 198.787L102.538 188.955L103.937 188.408L104.45 199.656L101.27 199.801L100.599 185.061Z" fill="white"/>
</svg>
