<svg width="1080" height="1080" viewBox="0 0 1080 1080" fill="none" xmlns="http://www.w3.org/2000/svg">
<g clip-path="url(#clip0_1684_2558)">
<path d="M782.448 663.792C787.96 655.964 793.473 648.136 798.985 640.308C798.145 639.33 797.305 638.353 796.465 637.375C801.39 638.343 806.286 639.608 811.245 640.203C817.801 640.99 828.304 644.3 830.232 641.144C835.246 632.935 839.196 621.591 838.641 611.858C837.773 596.639 832.843 581.717 829.634 566.669C828.52 566.762 827.407 566.856 826.293 566.95C824.653 572.164 822.77 577.3 821.422 582.61C818.18 595.375 810.116 602.573 799.556 598.045C789.913 593.91 788.548 581.867 791.742 571.138C797.364 552.25 804.885 534 809.422 514.82C811.721 505.104 811.059 493.258 808.26 483.676C806.486 477.605 797.759 469.437 793.122 470.163C784.703 471.481 776.197 477.59 769.287 483.89C764.421 488.325 762.832 497.066 758.549 502.681C749.776 514.182 750.245 527.649 750.947 541.164C751.068 543.491 754.302 545.798 756.356 547.771C760.901 552.137 766.624 555.446 770.024 560.711C775.578 569.309 777.292 578.584 763.83 584.066C739.809 583.611 717.995 583.344 696.181 583.076C699.128 574.523 701.981 565.926 705.047 557.428C708.827 546.949 715.816 536.636 716.039 526.104C716.517 503.64 723.916 485.217 734.749 467.591C736.12 465.359 736.962 462.709 738.674 458.84C731.72 456.827 725.797 454.862 719.776 453.429C711.56 451.475 705.091 454.443 701.22 463.209C700.676 464.441 701.308 466.703 700.579 467.411C693.824 473.971 686.35 486.077 680.135 485.334C670.759 484.212 664.403 472.723 668.599 453.805C659.585 459.014 653.262 461.497 648.203 465.858C640.053 472.884 633.337 482.177 624.855 488.526C619.247 492.723 611.698 494.374 604.831 495.219C602.422 495.515 597.487 490.264 597.167 487.099C596.569 481.174 596.906 473.727 599.664 469.023C609.34 452.514 612.996 434.282 615.085 415.139C616.181 405.093 625.537 400.257 635.385 405.197C658.572 416.829 681.695 420.48 707.58 417.044C726.786 414.495 747.824 420.046 764.44 435.719C766.605 437.761 772.434 439.221 773.061 438.199C775.824 433.693 779.102 428.09 778.908 423.046C778.333 408.081 758.733 392.531 745.567 395.402C733.427 398.049 727.097 392.105 724.244 378.052C722.125 367.612 719.346 356.759 714.473 347.744C704.698 329.661 675.094 330.217 652.801 338.075C658.932 341.841 663.443 344.858 668.141 347.44C675.539 351.507 681.737 356.577 680.126 367.249C678.413 378.603 670.394 377.683 662.994 377.707C638.376 377.789 615.173 347.713 620.663 320.728C622.121 313.557 629.931 308.042 635.185 301.304C618.081 285.154 599.737 272.273 574.901 280.069C558.712 285.151 554.115 290.643 558.047 308.794C561.023 322.533 564.642 337.006 571.502 348.444C576.366 356.553 586.985 360.401 595.268 365.682C604.694 371.691 614.379 377.179 623.415 382.574C617.843 406.088 602.284 407.215 587.712 410.117C582.747 411.105 577.124 410.686 572.954 413.281C567.259 416.825 559.563 421.798 558.326 427.671C556.449 436.578 559.482 446.323 568.644 451.581C579.466 457.79 580.014 464.797 571.496 475.48C564.548 484.195 558.954 517.345 563.657 526.297C564.991 528.837 569.523 531.142 572.115 530.608C588.304 527.269 604.555 523.909 620.41 519.002C643.575 511.833 666.284 508.077 687.23 525.293C692.326 529.482 695.582 536.539 699.263 541.688C685.233 567.668 665.09 555.039 645.882 555.009C646.617 562.516 647.335 569.081 647.867 575.665C648.087 578.385 648.516 583.312 647.818 583.564C638.031 587.088 628.144 590.598 618.044 592.204C616.835 592.396 614.162 581.422 612.329 575.56C611.79 573.834 611.808 571.886 611.698 571.032C599.112 574.534 586.635 577.072 574.88 581.872C571.571 583.224 567.674 592.18 568.735 595.966C571.551 606.017 568.701 610.139 560.63 611.959C549.09 614.561 537.602 617.587 525.972 619.493C516.894 620.981 514.772 616.548 518.312 606.7C521.115 598.901 523.069 590.284 523.51 581.902C524.921 555.1 525.418 528.237 526.332 501.4C527.073 479.663 510.619 467.238 504.193 449.363C503.815 448.31 500.162 448.564 498.031 448.553C485.266 448.486 472.5 448.52 456.413 448.52C460.008 463.35 462.6 480.299 468.244 495.826C476.272 517.909 488.789 538.289 487.06 563.568C486.385 573.429 484.222 583.315 481.532 592.75C480.719 595.602 475.652 599.004 472.894 598.642C465.014 597.606 457.285 594.907 449.582 592.508C448.137 592.057 446.107 590.058 446.004 588.622C444.18 562.983 425.467 563.756 410.538 560.991C395.414 558.19 379.625 556.938 364.48 558.76C358 559.54 349.476 568.576 347.007 576.035C341.144 593.738 329.172 586.38 319.673 586.766C309.082 587.196 312.292 576.438 312.7 570.108C313.941 550.843 315.102 531.396 318.688 512.605C319.766 506.957 328.128 501.386 334.141 499.091C341.224 496.389 347.216 500.032 349.209 510.047C353.04 529.291 366.606 519.852 374.527 522.01C376.364 508.981 377.133 496.948 379.93 485.553C382.697 474.277 390.665 475.219 397.032 481.103C402.895 486.522 408.59 493.231 412.015 500.741C418.364 514.663 425.957 523.668 439.23 519.033C431.769 486.49 424.794 453.482 416.465 420.916C412.743 406.362 407.017 392.284 400.876 378.76C395.831 367.65 400.941 360.925 408.008 357.966C415.258 354.931 423.975 354.612 429.784 364.496C436.343 375.656 442.997 386.989 451.04 396.734C465.258 413.962 484.012 417.426 502.82 410.63C510.318 407.92 517.673 398.367 521.423 389.857C534.103 361.081 532.91 330.626 524.485 300.774C520.662 287.231 512.275 276.583 497.746 280.504C484.069 284.195 470.37 288.701 457.586 295.149C453.783 297.068 449.987 308.178 451.585 312.551C454.15 319.568 460.656 325.424 466.601 329.889C469.629 332.164 475.147 330.976 479.39 330.246C490.047 328.414 499.399 333.34 499.142 344.515C498.975 351.746 490.744 361.398 484.018 365.253C467.26 374.858 442.021 365.324 430.6 347.464C413.501 320.724 409.314 319.959 383.176 336.246C366.549 346.607 348.667 354.671 332.904 366.434C320.294 375.843 308.535 388.288 310.101 409.484C329.535 409.785 348.763 417.647 366.734 401.853C373.238 396.138 387.787 409.627 388.098 420.484C388.35 429.284 389.845 438.663 387.715 446.748C385.591 454.809 381.034 464.365 375.02 468.213C367.418 473.077 359.583 467.176 354.337 458.683C352.31 455.401 349.53 451.977 346.395 450.428C322.72 438.731 277.753 454.297 263.653 478.699C256.446 491.171 257.98 507.343 268.764 514.896C278.472 521.694 283.971 529.943 280.029 542.224C276.291 553.869 266.861 557.521 256.43 557.71C253.39 557.765 250.348 557.743 245.332 558.509C242.98 574.237 242.052 589.232 242.495 604.174C242.678 610.372 245.793 616.458 247.575 622.594C247.575 622.594 247.378 622.538 247.135 623.357C247.759 625.794 248.624 627.412 249.49 629.03C256.011 631.56 262.531 634.09 269.796 636.909C270.653 642.125 272.802 649.146 272.54 656.05C272.4 659.714 268.451 665.794 265.585 666.318C238.889 671.193 214.963 659.333 211.535 626.558C208.682 599.277 212.222 571.076 213.729 543.338C213.979 538.75 217.54 531.79 220.936 530.49C233.38 525.723 231.066 514.995 228.723 506.16C220.113 473.707 235.227 453.866 255.833 436.387C257.207 435.222 258.342 433.427 259.868 432.803C276.506 425.999 279.044 412.44 279.253 393.542C279.557 366.11 294.345 346.067 315.518 333.362C338.319 319.68 361.264 306.085 384.986 294.691C395.131 289.818 408.866 293.683 418.277 287.934C426.931 282.647 430.245 265.778 438.919 260.987C468.327 244.745 499.037 233.275 530.739 256.119C533.229 257.913 538.691 257.153 541.507 255.22C572.608 233.867 614.111 240.414 642.468 262.945C650.295 269.164 655.909 278.843 663.364 285.799C668.736 290.812 675.466 297.317 681.612 297.348C712.921 297.501 735.219 313.533 750.674 343.245C755.124 351.799 759.587 357.83 768.858 362.338C791.378 373.289 804.893 394.521 810.795 422.056C812.486 429.95 816.291 438.637 821.519 443.94C840.486 463.177 847.825 486.672 847.53 514.996C847.428 524.831 850.861 535.554 855.033 544.458C873.495 583.856 880.506 623.578 857.092 663.061C852.503 670.8 841.447 677.566 833.232 677.778C816.982 678.197 800.634 673.725 783.162 669.639C782.148 666.599 782.298 665.195 782.448 663.792Z" fill="#EF5A6F"/>
<path d="M783.162 669.639C783.236 672.358 783.086 673.761 783.258 676.172C782.082 682.054 781.88 688.844 778.857 691.464C767.257 701.516 767.649 714.861 766.791 729.403C764.255 772.354 742.863 819.1 705.036 827.995C681.153 833.611 655.41 830.632 630.615 829.124C617.36 828.317 603.708 824.207 591.369 818.467C572.316 809.603 558.324 793.421 550.199 771.596C545.198 758.162 540.894 744.394 535.828 730.994C534.808 728.295 531.764 726.575 528.583 723.303C522.795 738.826 517.91 753.129 512.207 767.001C495.238 808.273 463.831 824.496 426.188 829.123C410.905 831.001 395.535 832.838 380.191 833.002C357.384 833.245 336.349 825.422 321.422 805.37C310.612 790.848 300.775 774.675 299.072 754.439C297.972 741.354 296.814 728.256 295.075 715.268C294.392 710.166 292.649 704.95 290.323 700.5C287.205 694.535 280.165 689.434 279.898 683.661C279.164 667.762 279.741 651.422 282.322 635.79C284.928 620.01 298.446 618.456 309.274 618.486C356.562 618.617 403.906 618.853 451.1 621.765C465.853 622.675 481.821 629.213 494.375 638.257C517.32 654.787 539.574 651.985 561.701 640.534C584.394 628.79 607.697 621.901 632.406 620.107C634.074 619.986 635.692 618.993 638.863 619.403C667.046 619.519 693.698 618.637 720.35 617.755C732.723 618.536 745.182 618.537 757.448 620.28C775.879 622.899 782.618 632.456 782.724 653.627C782.748 658.526 782.864 663.424 783.162 669.639ZM447.773 777.78C462 769.466 472.902 757.799 478.764 740.413C490.094 706.811 480.89 685.592 451.958 674.735C420.316 662.861 388.011 666.437 356.173 671.245C336.179 674.264 330.802 683.621 332.054 706.83C332.932 723.118 335.268 739.976 340.425 755.059C343.79 764.903 352.055 774.842 360.413 779.852C388.624 796.762 417.585 789.619 447.773 777.78ZM671.395 668.13C660.009 667.702 648.245 665.028 637.327 667.382C621.625 670.766 605.186 675.107 591.493 683.892C568.053 698.929 578.972 752.132 598.557 768.013C625.385 789.768 655.874 791.295 687.312 786.088C703.808 783.356 714.466 769.891 720.549 755.786C727.239 740.273 728.398 721.351 730.358 703.686C732.047 688.457 724.046 678.137 711.536 674.621C699.182 671.147 686.258 670.272 671.395 668.13Z" fill="#E8E8E8"/>
</g>
<defs>
<clipPath id="clip0_1684_2558">
<rect width="670" height="670" fill="white" transform="translate(205 205)"/>
</clipPath>
</defs>
</svg>
